<svg width="885" height="412" viewBox="0 0 885 412" fill="none" xmlns="http://www.w3.org/2000/svg">
<path d="M54.8078 289L209.208 65H217.608V345H195.608V280.2V276.6V115.8L91.6078 269.4H204.808H209.208H261.608V289H54.8078ZM635.277 289L789.677 65H798.077V345H776.077V280.2V276.6V115.8L672.077 269.4H785.277H789.677H842.077V289H635.277Z" fill="#BDC8F4"/>
<path d="M27.5586 210.264H36.7578V201.211H45.957V192.158H36.7578V183.105H27.5586V192.158H18.3594V201.211H27.5586V210.264Z" fill="#BDC8F4"/>
<path d="M0 165H9.19922V174.053H0V165Z" fill="#BDC8F4"/>
<path d="M0 219.316H9.19922V228.369H0V219.316Z" fill="#BDC8F4"/>
<path d="M848.199 210.264H857.398V201.211H866.598V192.158H857.398V183.105H848.199V192.158H839V201.211H848.199V210.264Z" fill="#BDC8F4"/>
<path d="M875.758 165H884.957V174.053H875.758V165Z" fill="#BDC8F4"/>
<path d="M875.758 219.316H884.957V228.369H875.758V219.316Z" fill="#BDC8F4"/>
<path d="M231 304H240.199V313.053H231V304Z" fill="#BDC8F4"/>
<path d="M814 304H823.199V313.053H814V304Z" fill="#BDC8F4"/>
<path d="M119 248H128.199V257.053H119V248Z" fill="#BDC8F4"/>
<path d="M700 248H709.199V257.053H700V248Z" fill="#BDC8F4"/>
<path d="M381.006 155.89H390.205V164.943H381.006V155.89Z" fill="#BDC8F4"/>
<path d="M445.352 186.667H454.551V195.719H445.352V186.667Z" fill="#BDC8F4"/>
<path d="M518.994 209.299H528.193V218.351H518.994V209.299Z" fill="#BDC8F4"/>
<path d="M551.395 119.458H560.594V110.405H569.793V101.353H560.594V92.2998H551.395V101.353H542.195V110.405H551.395V119.458Z" fill="#BDC8F4"/>
<path d="M578.953 74.1943H588.152V83.2471H578.953V74.1943Z" fill="#BDC8F4"/>
<path d="M578.953 128.511H588.152V137.563H578.953V128.511Z" fill="#BDC8F4"/>
<path d="M339.818 119.458H349.018V110.405H358.217V101.353H349.018V92.2998H339.818V101.353H330.619V110.405H339.818V119.458Z" fill="#BDC8F4"/>
<path d="M312.26 74.1943H321.459V83.2471H312.26V74.1943Z" fill="#BDC8F4"/>
<path d="M312.26 128.511H321.459V137.563H312.26V128.511Z" fill="#BDC8F4"/>
<path d="M561.757 266.757C569.914 258.966 577.36 245.15 583.215 235.174C573.593 229.752 561.265 222.006 550.579 219.228C563.692 203.701 565.962 183.917 564.991 164.303C556.461 164.364 544.512 163.795 536.298 165.861C537.743 158.496 537.302 138.381 537.302 138.381C517.276 138.381 496.175 139.289 479.688 150.811C477.884 145.299 475.432 139.944 472.349 134.83L464.437 139.449C467.741 144.929 470.23 150.709 471.859 156.66C467.677 160.228 463.861 164.271 460.488 168.744C457.335 165.497 453.555 162.262 450.001 159.323C446.443 162.265 442.669 165.494 439.512 168.743C436.14 164.269 432.324 160.227 428.141 156.659C431.657 143.807 439.147 131.924 450 121.972C453.489 125.172 456.652 128.59 459.432 132.168L466.74 126.67C462.104 120.608 456.149 114.938 450 109.964C436.045 120.953 425.244 135.295 420.308 150.806C403.826 139.288 383.283 138.38 362.699 138.38C362.699 138.38 362.239 158.732 363.798 166.369C354.798 163.761 342.324 164.332 332.926 164.303C331.916 184.227 334.346 204.251 347.864 219.881C338.197 222.672 326.163 230.244 317.35 235.175C323.2 245.132 330.576 258.843 338.696 266.644C316.192 272.245 293 281.54 293 296.057C293 307.73 307.641 317.441 336.517 324.919C362.548 331.661 397.831 335.829 435.867 336.654L436.07 327.601C398.735 326.791 364.212 322.729 338.859 316.162C311.832 309.163 302.202 301.187 302.202 296.058C302.202 290.415 313.99 281.334 346.964 274.012C361.886 285.478 380.817 291.117 404.161 291.117H496.403C519.68 291.117 538.569 285.509 553.472 274.11C586.126 281.419 597.798 290.454 597.798 296.058C597.798 301.193 588.153 309.175 561.082 316.178C535.69 322.747 501.121 326.805 463.745 327.605L463.945 336.658C502.022 335.843 537.35 331.68 563.421 324.935C592.338 317.455 606.999 307.739 606.999 296.057C607 281.619 584.036 272.35 561.757 266.757ZM570.648 238.488C556.578 265.859 534.399 281.363 500.52 281.994C522.398 271.045 538.842 251.046 544.735 227.039C553.838 229.114 562.637 233.714 570.648 238.488ZM454.6 274.563C454.6 233.445 488.593 199.992 530.377 199.992H537.908V207.404C537.908 248.522 503.914 281.974 462.131 281.974H454.6V274.563ZM555.791 173.355C556.346 185.646 553.76 198.059 547.106 208.343V191.005H527.185C530.007 186.186 532.25 181.108 533.904 175.838C545.581 172.381 555.791 173.355 555.791 173.355ZM521.856 147.432H528.102V153.578C528.102 167.61 523.719 180.933 515.429 192.236C503.57 194.316 492.553 198.824 482.933 205.218C479.592 194.668 474.122 184.706 466.74 175.689C479.349 157.939 499.709 147.432 521.856 147.432ZM450 171.317C462.527 182.689 471.128 196.346 475.08 211.12C463.726 220.716 454.969 233.206 450 247.416C445.03 233.204 436.271 220.714 424.916 211.117C428.868 196.341 437.469 182.691 450 171.317ZM371.898 147.432H378.144C400.29 147.432 420.651 157.938 433.259 175.688C425.876 184.705 420.407 194.665 417.066 205.218C407.446 198.823 396.431 194.316 384.571 192.236C376.281 180.934 371.898 167.61 371.898 153.578V147.432ZM342.125 173.355C350.294 173.124 358.684 173.815 366.334 176.584C367.963 181.587 370.126 186.414 372.814 191.005H352.998V211.577C344.837 200.644 341.466 186.979 342.125 173.355ZM329.916 238.488C337.771 233.818 346.381 229.279 355.282 227.181C356.248 231.094 357.503 234.94 359.047 238.702L367.577 235.312C363.938 226.446 362.093 217.056 362.093 207.404V199.993H369.624C411.407 199.993 445.401 233.445 445.401 274.563V281.975H437.87C410.316 281.975 384.897 267.224 371.533 243.479L363.486 247.865C371.879 262.777 384.514 274.523 399.435 281.974C365.903 281.197 343.888 265.668 329.916 238.488Z" fill="#BDC8F4"/>
<path d="M445.323 327.734L445.254 336.789C448.369 336.811 451.526 336.812 454.641 336.789L454.575 327.734C451.501 327.757 448.395 327.756 445.323 327.734Z" fill="#BDC8F4"/>
</svg>
