<svg width="51" height="48" viewBox="0 0 51 48" fill="none" xmlns="http://www.w3.org/2000/svg">
<path d="M14.112 26.5386H8.299L1.86523 42.1975H48.6864L42.2597 26.5386H36.4467" stroke="#F2ED9C" stroke-width="2.5" stroke-miterlimit="10" stroke-linecap="square"/>
<path d="M36.9056 12.8918C36.9056 14.7133 36.4894 16.4359 35.7416 17.975C33.858 21.8579 25.2726 33.8669 25.2726 33.8669C25.2726 33.8669 16.8989 21.9921 14.9518 18.2715C14.1123 16.6618 13.6396 14.8333 13.6396 12.8918C13.6396 6.46728 18.8459 1.25 25.2726 1.25C31.6993 1.25706 36.9056 6.46728 36.9056 12.8918Z" stroke="#F2ED9C" stroke-width="2.5" stroke-miterlimit="10" stroke-linecap="square"/>
<path d="M25.2798 17.636C27.898 17.636 30.0204 15.5119 30.0204 12.8917C30.0204 10.2715 27.898 8.14746 25.2798 8.14746C22.6616 8.14746 20.5391 10.2715 20.5391 12.8917C20.5391 15.5119 22.6616 17.636 25.2798 17.636Z" stroke="#F2ED9C" stroke-width="2.5" stroke-miterlimit="10" stroke-linecap="square"/>
<path d="M1.86523 46.25H48.6864" stroke="#F2ED9C" stroke-width="2.5" stroke-miterlimit="10" stroke-linecap="square"/>
</svg>
