<svg width="80" height="80" viewBox="0 0 80 80" fill="none" xmlns="http://www.w3.org/2000/svg">
<g clip-path="url(#clip0_124_2853)">
<path d="M11.9233 64.6079H14.2657V66.9517H11.9233V64.6079Z" fill="#77697D"/>
<path d="M32.1591 58.7171C31.4841 56.1822 30.1389 52.8877 30.1389 52.8877C29.4269 53.1938 26.5611 54.3271 25.9284 54.6685L31.2714 49.3224L32.8755 50.9274L50.6355 33.1569L48.9791 31.4997L32.8756 47.6132L31.2192 45.9558L52.8825 24.2797L54.5387 25.9371L50.6822 29.7958L52.3386 31.453L65.083 18.701L60.1141 13.7292L27.9066 45.9558L29.615 47.6652L23.1494 54.1347L21.2995 52.2838C20.7806 52.8182 18.5578 54.9828 18.1234 55.5147C16.7792 54.5166 14.0367 53.5572 12.4866 52.8877C11.8644 54.4716 10.6213 57.07 10.3772 58.7386H6.10328V62.2714C6.10328 64.4675 6.65844 66.536 7.63469 68.3449C3.84094 69.2438 0 70.8116 0 73.476C0 75.5669 2.32766 77.2333 6.91859 78.4289L7.50844 76.1608C3.29156 75.0625 2.34234 73.8235 2.34234 73.4761C2.34234 72.926 4.00031 71.4969 9.04047 70.433C11.3936 73.2805 14.9495 75.098 18.9219 75.098H23.6741C27.6388 75.098 31.7041 72.7542 33.7531 70.4492C38.5609 71.51 40.3722 72.9238 40.3722 73.4761C40.3722 73.8419 39.4666 75.0314 35.3309 76.128C31.6134 77.1138 26.6508 77.6566 21.3572 77.6566C17.1598 77.6566 13.1553 77.3147 9.77594 76.668L9.33578 78.97C12.858 79.6438 17.0147 80 21.3572 80C31.6434 80 42.7144 77.9585 42.7144 73.476C42.7144 72.2483 41.8995 71.2539 40.6478 70.4491H58.7447V68.1053H35.0841C35.9822 66.3538 36.4927 64.3717 36.4927 62.2716V61.061H77.5744C77.0045 65.0386 73.5766 68.1055 69.4461 68.1055H65.7716V70.4492H69.4461C75.2655 70.4492 80 65.7121 80 59.8892V58.7174H32.1591V58.7171ZM61.7706 18.701L56.1952 24.2797L54.5389 22.6224L60.1142 17.0438L61.7706 18.701ZM27.7475 56.4092L28.8663 55.9477C29.2761 56.9219 29.7522 58.0411 29.9294 59.0778C28.9077 59.325 27.9336 59.6947 27.0231 60.171C26.7361 59.2139 26.3389 58.2977 25.8405 57.4378C26.4364 57.0325 27.0741 56.6871 27.7475 56.4092ZM21.2995 55.5982C23.048 57.1886 24.4669 59.1849 24.9575 61.5188C23.4019 62.7616 22.1416 64.3578 21.298 66.1858C20.4548 64.3589 19.1956 62.7636 17.6414 61.5211C18.1308 59.1872 19.5505 57.1894 21.2995 55.5982ZM13.2981 57.0671L13.7592 55.9478C14.7544 56.3489 15.8947 56.8061 16.7655 57.4246C16.2631 58.2886 15.8642 59.2102 15.5758 60.1727C14.6728 59.7 13.7075 59.3319 12.6948 59.0846C12.828 58.3971 13.0286 57.7216 13.2981 57.0671ZM18.9219 72.7539C13.1452 72.7539 8.44562 68.0514 8.44562 62.2714V61.0608H9.65563C15.3647 61.0608 20.0186 65.6547 20.1267 71.3417L20.1216 72.7539H18.9219ZM23.6741 72.7539H22.4742L22.4691 71.3417C22.5772 65.6547 27.2311 61.0608 32.9402 61.0608H34.1502V62.2714C34.1503 68.0516 29.4508 72.7539 23.6741 72.7539Z" fill="#77697D"/>
<path d="M61.0869 68.1052H63.4293V70.449H61.0869V68.1052Z" fill="#77697D"/>
<path d="M73.8133 14.2184V0H71.471V14.2184C71.471 16.1569 69.8947 17.7341 67.9575 17.7341V20.0778C71.1864 20.0777 73.8133 17.4492 73.8133 14.2184Z" fill="#77697D"/>
<path d="M64.4443 0H66.7867V2.5H64.4443V0Z" fill="#77697D"/>
<path d="M64.4443 4.84351H66.7867V14.2183H64.4443V4.84351Z" fill="#77697D"/>
<path d="M38.835 63.436H41.1773V65.7798H38.835V63.436Z" fill="#77697D"/>
<path d="M43.5195 63.436H45.8619V65.7798H43.5195V63.436Z" fill="#77697D"/>
<path d="M11.8857 14.2185H14.2281V16.5623H11.8857V14.2185Z" fill="#77697D"/>
<path d="M18.9125 25.9154H21.2548V23.5718H23.5972V21.228H21.2548V18.8843H18.9125V21.228H16.5703V23.5718H18.9125V25.9154Z" fill="#77697D"/>
<path d="M11.8857 28.2805H14.2281V30.6243H11.8857V28.2805Z" fill="#77697D"/>
</g>
<defs>
<clipPath id="clip0_124_2853">
<rect width="80" height="80" fill="white"/>
</clipPath>
</defs>
</svg>
