<svg width="80" height="80" viewBox="0 0 80 80" fill="none" xmlns="http://www.w3.org/2000/svg">
<g clip-path="url(#clip0_149_764)">
<path d="M11.9229 64.6091H14.265V66.9527H11.9229V64.6091Z" fill="#77697D"/>
<path d="M49.3783 16.658V9.37422C49.3783 4.20532 45.1753 4.8979e-06 40.0094 4.8979e-06C34.7852 -0.0053076 30.55 4.31172 30.6405 9.53594H32.9827C32.8933 5.60391 36.0759 2.33844 40.0094 2.3436C43.8839 2.3436 47.0361 5.4975 47.0361 9.37422V16.658H32.9828V11.8794H30.6406V16.6578C26.7684 16.6578 23.5717 19.7695 23.5741 23.6534V54.562L21.2987 52.2855C21.2987 52.2855 18.3345 55.2697 18.1228 55.5163C17.3878 55.0141 12.4862 52.8892 12.4862 52.8892C12.4862 52.8892 10.5388 57.865 10.3769 58.74C10.1378 58.7267 6.10313 58.7184 6.10313 58.7184V62.2725C6.10313 64.4683 6.65828 66.5367 7.63438 68.3455C3.84078 69.2444 0 70.8122 0 73.4762C0 75.5672 2.32766 77.2334 6.91828 78.4288L7.50828 76.1609C3.29141 75.0627 2.34234 73.8236 2.34234 73.4762C2.34234 72.9263 4.00031 71.4972 9.04016 70.4333C11.3931 73.2805 14.9491 75.098 18.9212 75.098H23.6731C27.6139 75.098 31.1438 73.308 33.4969 70.4995C33.4969 70.4995 40.3706 71.2923 40.3706 73.4762C40.3706 74.1045 39.465 75.0316 35.3297 76.128C31.6122 77.1136 26.6498 77.6564 21.3566 77.6564C17.1595 77.6564 13.155 77.3147 9.77563 76.6678L9.33547 78.9695C12.8573 79.6436 17.0142 79.9998 21.3564 79.9998C31.6422 79.9998 42.7127 77.9584 42.7127 73.4761C42.7127 72.2738 41.9305 71.2953 40.7222 70.4994H49.443C53.2983 70.4994 56.4348 67.3611 56.4348 63.5038V58.7502H54.0927V63.5038C54.0927 66.0689 52.0069 68.1559 49.4431 68.1559H35.057C35.9711 66.3923 36.4911 64.3927 36.4911 62.2727V58.7186C36.4911 58.7186 32.4759 58.7256 32.2467 58.738C32.0847 57.8638 30.1378 52.8894 30.1378 52.8894C30.1378 52.8894 26.2222 54.5205 25.9163 54.6763V28.3356H47.0311V25.9922H25.9161V23.6536C25.9161 21.0884 28.0019 19.0014 30.5656 19.0014H49.443C52.0067 19.0014 54.0925 21.0883 54.0925 23.6536V51.7197H56.4347V23.6536C56.4348 19.7963 53.2903 16.658 49.3783 16.658ZM21.2986 55.5998C23.0469 57.1903 24.4659 59.1867 24.9562 61.5202C23.4006 62.7628 22.1405 64.3589 21.2969 66.1867C20.4539 64.36 19.1947 62.7647 17.6403 61.5224C18.13 59.1886 19.5497 57.1908 21.2986 55.5998ZM13.7587 55.9494C13.7587 55.9494 16.1747 57.0264 16.7648 57.4259C16.2625 58.29 15.8636 59.2114 15.5752 60.1741C14.6722 59.7014 13.707 59.3334 12.6944 59.0859C12.8273 58.3986 13.7587 55.9494 13.7587 55.9494ZM18.9211 72.7544C13.1447 72.7544 8.44516 68.0524 8.44516 62.2727V61.0622H9.655C15.3639 61.0622 20.0177 65.6558 20.1258 71.3423C20.1247 71.4097 20.1206 72.7544 20.1206 72.7544H18.9211ZM34.1489 61.0622V62.2727C34.1489 68.0524 29.4494 72.7544 23.673 72.7544H22.4733C22.4733 72.7544 22.4692 71.4097 22.4681 71.3423C22.5763 65.6556 27.23 61.0622 32.9389 61.0622H34.1489ZM28.865 55.9494C28.865 55.9494 29.7952 58.3942 29.928 59.0794C28.9062 59.3264 27.9323 59.6961 27.0219 60.1723C26.7348 59.2155 26.3377 58.2992 25.8392 57.4394C26.4353 57.0341 28.865 55.9494 28.865 55.9494Z" fill="#77697D"/>
<path d="M54.0928 54.0632H56.435V56.4068H54.0928V54.0632Z" fill="#77697D"/>
<path d="M44.644 30.6279H46.9862V32.9715H44.644V30.6279Z" fill="#77697D"/>
<path d="M44.644 35.3149H46.9862V37.6585H44.644V35.3149Z" fill="#77697D"/>
<path d="M44.644 40.002H46.9862V42.3455H44.644V40.002Z" fill="#77697D"/>
<path d="M44.644 44.689H46.9862V47.0326H44.644V44.689Z" fill="#77697D"/>
<path d="M44.644 49.376H46.9862V51.7196H44.644V49.376Z" fill="#77697D"/>
<path d="M46.9861 61.0939V58.7503H49.3283V56.4068H46.9861V54.0632H44.6439V56.4068H42.3018V58.7503H44.6439V61.0939H46.9861Z" fill="#77697D"/>
<path d="M30.6406 21.2537H32.9828V23.5973H30.6406V21.2537Z" fill="#77697D"/>
<path d="M35.3647 21.2537H37.7069V23.5973H35.3647V21.2537Z" fill="#77697D"/>
<path d="M77.6577 0.00537109H79.9999V2.34896H77.6577V0.00537109Z" fill="#77697D"/>
<path d="M72.9734 4.6709H70.6312V7.01434H68.2891V9.35793H70.6312V11.7015H72.9734V9.35793H75.3158V7.01434H72.9734V4.6709Z" fill="#77697D"/>
<path d="M77.6577 14.0667H79.9999V16.4102H77.6577V14.0667Z" fill="#77697D"/>
<path d="M0 0.00561523H2.34219V2.34921H0V0.00561523Z" fill="#77697D"/>
<path d="M7.14248 11.7015H9.48482V9.35793H11.827V7.01434H9.48482V4.6709H7.14248V7.01434H4.80029V9.35793H7.14248V11.7015Z" fill="#77697D"/>
<path d="M0 14.0667H2.34219V16.4102H0V14.0667Z" fill="#77697D"/>
</g>
<defs>
<clipPath id="clip0_149_764">
<rect width="80" height="80" fill="white"/>
</clipPath>
</defs>
</svg>
