<svg width="80" height="80" viewBox="0 0 80 80" fill="none" xmlns="http://www.w3.org/2000/svg">
<g clip-path="url(#clip0_149_749)">
<path d="M70.4565 4.84688V0H63.4378V4.84688H33.0065V0H25.9878V4.84688H16.647V51.7183L18.0599 52.32L18.9882 51.4056V16.5703H56.5853V14.2267H18.9882V7.19063H25.9878V11.8755H33.0065V7.19063H63.4378V11.8755H70.4565V7.19063H77.6588V14.2267H58.9263V16.5703H77.6588V68.1522H72.7654V70.4958H80.0001V4.84688H70.4565ZM30.6653 9.53172H28.329V2.34359H30.6653V9.53172ZM68.1153 9.53172H65.779V2.34359H68.1153V9.53172Z" fill="#77697D"/>
<path d="M68.083 68.1521H70.4243V70.4957H68.083V68.1521Z" fill="#77697D"/>
<path d="M35.3545 9.53247H37.6957V11.8761H35.3545V9.53247Z" fill="#77697D"/>
<path d="M40.0439 9.53247H42.3852V11.8761H40.0439V9.53247Z" fill="#77697D"/>
<path d="M36.4759 62.2719V61.0599H50.4753V54.0289H45.7959L47.8545 52.1202C51.3413 49.0403 51.2619 43.1291 47.9823 39.9719C46.4645 38.4574 44.4498 37.6233 42.3095 37.6233H42.2859C37.7675 37.6233 34.0916 41.303 34.0916 45.8261V49.3333H40.5242L34.0916 55.2977V58.7161V58.7175C34.0916 58.7175 32.4625 58.7245 32.2334 58.7367C32.0716 57.8625 31.8205 57.0042 31.4786 56.1741L30.1253 52.8881L26.8427 54.2428C26.0058 54.5881 25.2134 55.0195 24.4739 55.5267C24.0467 54.9988 21.8014 52.8117 21.2898 52.2842C20.7713 52.8186 18.5495 54.9833 18.1153 55.5152C17.3806 55.013 16.5942 54.5856 15.7636 54.2428L12.4809 52.8883L11.1275 56.1742C10.7855 57.005 10.5342 57.8641 10.3723 58.7391L6.10047 58.7175V62.2719C6.10047 64.4678 6.65547 66.5363 7.63109 68.3452C3.83922 69.2439 0 70.8119 0 73.4759C0 75.5669 2.32672 77.2331 6.91531 78.4288L7.505 76.1606C3.28984 75.0624 2.34109 73.8234 2.34109 73.4759C2.34109 72.9258 3.99844 71.4967 9.03609 70.4328C11.3881 73.2802 14.9425 75.0977 18.9131 75.0977H23.663C27.6434 75.0977 31.2053 73.2711 33.5572 70.4116C38.6688 71.4763 40.3534 72.917 40.3534 73.4759C40.3534 73.8417 39.4481 75.0313 35.3145 76.1277C31.5986 77.1134 26.6383 77.6563 21.3472 77.6563C17.1519 77.6563 13.1491 77.3144 9.77109 76.6677L9.33125 78.9695C12.852 79.6438 17.0072 80 21.3475 80C31.6291 80 42.695 77.9584 42.695 73.4759C42.695 72.2719 41.9111 71.2924 40.7006 70.4958H65.7416V68.1522H35.0442C35.9569 66.3894 36.4759 64.3908 36.4759 62.2719ZM36.4328 56.3214L44.6725 48.6814C47.0019 46.3497 45.4328 42.2038 42.2898 42.3106C40.3495 42.3106 38.7742 43.8877 38.7742 45.8261V46.9895H36.4328V45.8261C36.4328 42.5953 39.0584 39.967 42.2859 39.967C47.5527 39.868 50.1463 46.908 46.2634 50.4008L39.823 56.3725H48.1341V58.7161H36.4328V56.3214ZM41.1153 48.785V46.9895V45.8261C41.2744 44.103 43.5202 44.3636 43.4566 46.1024C43.4566 46.4277 43.3198 46.7411 43.0814 46.962L41.1153 48.785ZM27.7348 56.4097L28.853 55.9483C29.2625 56.9225 29.7386 58.0417 29.9156 59.0783C28.8944 59.3255 27.9209 59.6952 27.0108 60.1714C26.7239 59.2144 26.3269 58.2981 25.8286 57.4383C26.4242 57.033 27.0617 56.6875 27.7348 56.4097ZM21.2898 55.5988L22.145 56.4549C23.5425 57.8538 24.5081 59.6027 24.9459 61.5194C23.3911 62.7622 22.1314 64.3583 21.2881 66.1863C20.4455 64.3594 19.1867 62.7641 17.6331 61.5216C18.0708 59.6039 19.0358 57.8552 20.4345 56.4549L21.2898 55.5988ZM13.292 57.0675L13.753 55.9481C14.7477 56.3492 15.8875 56.8066 16.7578 57.4249C16.2558 58.2889 15.857 59.2103 15.5686 60.173C14.6661 59.7003 13.7013 59.3322 12.6891 59.0849C12.822 58.3975 13.0227 57.722 13.292 57.0675ZM18.9133 72.7541C13.1392 72.7541 8.44172 68.0517 8.44172 62.2717V61.0611H9.65109C15.3577 61.0611 20.0095 65.6549 20.1175 71.3419C20.1164 71.4092 20.1123 72.7541 20.1123 72.7541H18.9133ZM23.6631 72.7541H22.4639L22.4587 71.3419C22.5669 65.6549 27.2186 61.0611 32.9252 61.0611H34.1345V62.2717C34.1347 68.0519 29.4372 72.7541 23.6631 72.7541Z" fill="#77697D"/>
<path d="M43.5547 23.5945V30.6071C43.5547 33.1917 45.6553 35.2945 48.2372 35.2945C50.8191 35.2945 52.9197 33.1918 52.9197 30.6071V23.5945H50.5784V30.6071C50.5784 31.8995 49.5281 32.9507 48.2372 32.9507C46.9462 32.9507 45.8959 31.8993 45.8959 30.6071V23.5945H43.5547Z" fill="#77697D"/>
<path d="M36.531 35.3025C39.1341 35.3025 41.2519 33.1825 41.2519 30.5767V23.5867H38.9107V30.5767C38.9107 31.8901 37.8432 32.9587 36.531 32.9587C35.2188 32.9587 34.1513 31.8901 34.1513 30.5767H31.8101C31.8101 33.1825 33.9279 35.3025 36.531 35.3025Z" fill="#77697D"/>
<path d="M62.2693 35.27H64.6339V23.5944H62.2926V30.9988L57.4868 23.5803H55.2529V35.2892H57.5942V28.0534L62.2693 35.27Z" fill="#77697D"/>
<path d="M52.8213 37.6565V44.6874H55.1949V61.0515H62.2186V37.6565H52.8213ZM59.8775 58.7079H57.5363V42.3438H55.1627V40.0001H59.8775V58.7079Z" fill="#77697D"/>
<path d="M11.918 64.6084H14.2592V66.952H11.918V64.6084Z" fill="#77697D"/>
<path d="M7.21039 51.7182H9.55164V49.3744H11.8929V47.0308H9.55164V44.6873H7.21039V47.0308H4.86914V49.3744H7.21039V51.7182Z" fill="#77697D"/>
<path d="M0.141602 40H2.48285V42.3436H0.141602V40Z" fill="#77697D"/>
<path d="M0.141602 51.7183H2.48285V54.0619H0.141602V51.7183Z" fill="#77697D"/>
</g>
<defs>
<clipPath id="clip0_149_749">
<rect width="80" height="80" fill="white"/>
</clipPath>
</defs>
</svg>
