<svg width="45" height="34" viewBox="0 0 45 34" fill="none" xmlns="http://www.w3.org/2000/svg">
<path d="M34.9625 1.53392C34.9625 1.53392 27.7115 4.65162 27.1639 4.95697C27.079 4.86841 22.2161 0 22.2161 0C22.2161 0 17.4074 4.8136 17.3489 4.87387C16.8486 4.60152 9.70235 1.53367 9.70235 1.53367C9.70235 1.53367 6.64344 8.8327 6.45964 9.44215H0V16.0786C0 25.6974 7.82365 33.523 17.4404 33.523H26.9917C31.1351 33.523 35.1515 32.0442 38.3007 29.3588L35.8877 26.5281C33.4107 28.64 30.2515 29.8031 26.9917 29.8031H24.0757V26.8865C24.0757 19.3189 30.231 13.1624 37.7969 13.1624H40.7127V16.0789C40.7127 18.9027 39.8626 21.6141 38.2543 23.9202L41.3048 26.0486C43.3507 23.1152 44.4321 19.6676 44.4321 16.0789V9.4424H38.2052C38.0214 8.83295 34.9625 1.53392 34.9625 1.53392ZM32.992 6.41151C32.992 6.41151 34.3138 9.54807 34.3972 9.77727C33.1795 10.0189 32.0072 10.388 30.8945 10.8697C30.5105 9.85317 30.031 8.87363 29.4643 7.94544C29.7411 7.80554 32.992 6.41151 32.992 6.41151ZM11.6726 6.41151C11.6726 6.41151 14.8027 7.75022 15.022 7.85713C14.4316 8.81137 13.934 9.82067 13.5377 10.8697C12.4909 10.4167 11.3916 10.063 10.2513 9.82166C10.3393 9.57758 11.6726 6.41151 11.6726 6.41151ZM20.3562 29.8031H17.4404C9.8745 29.8031 3.71921 23.6466 3.71921 16.0789V13.1624H6.635C14.2009 13.1624 20.3562 19.3189 20.3562 26.8865V29.8031ZM22.2161 19.0629C20.9486 16.5477 19.0912 14.3805 16.825 12.7427C17.6741 9.77701 20.0191 7.33747 22.2158 5.26107C24.4148 7.33995 26.7556 9.77453 27.6069 12.7427C25.341 14.3803 23.4836 16.5475 22.2161 19.0629Z" fill="#7F7F7F"/>
<path d="M9.1272 18.5645H12.8464V22.2847H9.1272V18.5645Z" fill="#7F7F7F"/>
</svg>
