<svg width="345" height="294" viewBox="0 0 345 294" fill="none" xmlns="http://www.w3.org/2000/svg">
<path d="M328.103 156.547C307.86 173.411 273.192 164.056 247.86 174.341C231.315 181.054 217.569 184.853 197.935 187.709C186.893 189.318 177.134 192.951 169.86 198.272C158.445 206.625 148.984 215.03 134.43 221.395C123.473 226.185 113.876 230.999 105.738 237.728C88.5553 251.922 75.4176 268.832 48.2266 276.023C36.7227 276.542 26.3514 279.394 16.9386 283.613C6.1264 288.453 -2.27373 293.461 -16.2203 294.792C-25.0806 295.641 -34.6864 294.778 -44.0349 293.959C-41.622 288.928 -29.4949 269.234 -29.1696 269.029C-2.38637 252.584 45.6427 259.981 63.3827 236.463C68.6871 229.434 72.4771 222.657 82.3948 217.769C91.3289 213.368 104.03 211.863 113.97 208.416C129.166 203.147 131.877 194.789 134.315 184.293C137.424 170.864 152.318 162.185 163.856 151.989C174.859 142.261 175.693 131.833 175.812 119.585C175.94 104.398 180.492 89.2003 178.023 73.8863C175.596 58.8662 161.854 47.9102 165.902 33.1659C166.706 32.0623 167.442 30.9067 168.08 29.6815C168.938 28.0596 164.878 26.8673 164.014 28.4886C157.778 40.3365 105.777 68.7685 92.5223 75.3883C61.8814 90.7037 40.7843 113.38 21.1298 134.597C2.77117 154.428 -13.7156 175.356 -25.499 197.488C-30.7634 207.375 -33.4608 217.247 -32.6711 228.095C-31.7581 240.559 -28.7787 252.258 -31.5517 264.32C-31.9339 264.772 -45.1736 284.552 -49.507 293.501C-51.0138 293.38 -52.5044 293.269 -53.9908 293.173C-67.7973 292.304 -132.165 293.119 -105.504 309.88C-104.459 310.538 -103.211 310.384 -102.435 309.889C-102.704 310.72 -103.054 311.549 -103.483 312.362C-104.028 313.378 -102.215 314.78 -100.517 314.24C-84.6608 309.193 -69.0423 304.508 -52.7337 300.272C-54.0331 303.017 -57.7973 310.384 -58.1839 311.179C-64.4981 317.851 -71.0097 324.472 -76.4187 331.501C-76.9304 332.172 -76.1175 333.086 -75.0627 333.404C-71.7059 334.403 -68.6503 334.938 -65.1128 335.37C-63.8479 335.525 -62.8148 334.964 -62.6807 334.195C-61.2626 325.619 -48.3334 302.349 -46.4464 298.674C-44.9232 298.294 -41.8018 297.436 -41.7224 297.401C-32.8532 298.052 -24.0004 298.639 -15.1691 298.208C-4.61717 297.69 4.29061 294.338 12.3106 290.569C19.8533 287.021 26.2751 283.43 35.2076 281.085C40.7709 279.629 54.0111 279.102 54.6081 279.104C75.3696 279.236 89.3207 287.66 108.563 291.187C124.276 294.07 139.93 291.922 154.239 289.145C180.786 283.993 211.563 283.569 228.266 268.143C237.43 259.687 241.421 249.72 252.507 241.861C264.217 233.578 279.433 227.427 292.157 219.813C303.112 213.262 309.598 206.139 312.955 196.498C314.887 190.954 315.63 185.293 318.102 179.844C321.558 172.233 328.285 165.608 331.633 157.922C332.218 156.607 329.463 155.417 328.104 156.549L328.103 156.547ZM-21.2889 198.734C-9.06581 174.071 10.9827 151.067 31.455 129.349C52.0247 107.533 75.0145 87.1918 107.138 72.0114C120.294 65.8029 129.576 57.3676 142.114 50.7365C149.31 46.9216 155.818 43.2337 160.874 38.6839C160.074 44.4374 161.762 50.2471 164.8 56.5987C163.858 56.8691 158.509 58.9364 157.018 60.0022C156.399 60.4414 157.418 61.2284 158.252 60.9897C160.226 60.419 165.534 59.3736 166.097 59.2728C167.177 61.4052 168.265 63.5202 169.267 65.6289C165.653 65.8185 162.83 67.5137 159.927 68.6019C159.26 68.8486 159.869 69.5633 160.595 69.5104C163.9 69.2819 167.193 68.4984 170.185 67.7099C171.073 69.7434 171.872 71.7997 172.45 73.9043L172.427 73.9017C168.333 74.5426 164.826 75.8225 162.02 77.7394C161.717 77.947 162.213 78.3334 162.616 78.2143C165.824 77.2525 169.363 76.7573 173 76.5703C173.217 77.8711 173.358 79.1851 173.41 80.5073C173.254 80.3466 164.98 80.13 162.144 81.3836C161.637 81.6081 162.068 82.2072 162.701 82.1474C164.297 82.0028 165.914 81.9121 167.535 81.851C169.196 81.7909 173.302 81.6097 173.475 81.3654C173.542 85.8171 172.862 90.3669 172.147 94.8097C172.004 94.7384 164.285 94.6841 162.593 96.5996C162.273 96.9665 162.84 97.6398 163.588 97.3949C166.157 96.5436 171.744 96.5568 171.881 96.5248C171.506 98.8507 170.93 103.5 170.923 103.566C168.075 103.652 165.525 104.432 162.754 104.714C161.967 104.793 161.936 105.622 162.846 105.685C165.416 105.846 168.155 106.209 170.75 106.149C170.568 108.82 170.444 111.482 170.363 114.131C167.53 113.68 164.204 113.785 161.566 114.174C160.391 114.348 160.336 115.438 161.708 115.628C164.485 116.006 167.471 116.699 170.268 116.852C170.186 119.149 170.048 121.429 169.855 123.684C169.055 123.369 168.179 123.112 167.314 122.918C164.971 122.39 162.625 122.552 160.44 122.985C159.704 123.132 159.909 123.981 160.753 124.011C162.665 124.086 164.326 124.433 166.101 125.001C167.422 125.427 168.327 126.142 169.57 126.541C169.371 128.091 169.063 129.618 168.733 131.142C167.563 130.507 165.985 130.041 164.811 129.651C162.422 128.869 159.991 128.661 157.553 129.022C156.721 129.143 156.615 130.022 157.656 130.1C160.217 130.29 162.34 131.169 164.398 132.203C165.71 132.862 166.752 133.553 168.138 133.663C167.454 136.049 166.44 138.383 165.204 140.673C165.255 140.481 162.178 138.653 160.227 138.306C158.094 137.927 156.001 137.55 153.823 137.408C152.74 137.336 151.852 138.312 153.04 138.785C154.872 139.511 156.761 140.096 158.7 140.655C160.476 141.165 164.813 141.201 164.987 141.045C164.024 142.775 162.862 144.465 161.523 146.135C160.64 145.122 158.729 144.321 157.279 143.756C154.945 142.841 152.344 142.395 149.759 142.412C148.76 142.423 148.728 143.369 149.622 143.617C151.529 144.146 153.199 144.875 154.825 145.728C156.332 146.516 157.76 147.936 159.664 148.241C159.308 148.615 159.054 149.004 158.664 149.374C156.729 151.225 154.666 152.984 152.57 154.722C151.753 154.204 150.709 153.791 149.743 153.403C148.017 152.715 146.327 152.265 144.39 152.045C143.004 151.89 142.088 153.154 143.435 153.711C144.942 154.337 146.461 154.965 147.923 155.63C148.7 155.99 149.415 156.39 150.17 156.689C147.978 158.459 145.787 160.216 143.646 161.992C142.743 161.515 141.709 161.119 140.791 160.721C138.677 159.813 136.441 159.213 134.039 158.906C132.505 158.713 132.166 160.061 133.498 160.498C135.522 161.169 137.253 162.07 139.022 163.001C139.706 163.362 140.409 163.765 141.146 164.123C140.121 165.019 139.141 165.934 138.182 166.858C137.22 166.389 136.058 166.041 134.964 165.656C132.611 164.819 130.226 164.104 127.761 163.427C127.006 163.224 126.169 163.796 126.839 164.232C128.615 165.402 130.477 166.487 132.493 167.483C133.548 167.999 134.706 168.692 135.929 169.161C134.6 170.59 133.357 172.073 132.246 173.625C131.04 173.356 129.761 173.177 128.572 172.914C125.98 172.336 123.411 171.754 120.882 171.029C120.084 170.806 119.498 171.465 120.216 171.83C122.219 172.843 124.314 173.712 126.52 174.524C127.778 174.99 129.297 175.515 130.819 175.865C130.332 176.718 129.852 177.577 129.483 178.47C127.249 177.904 117.479 177.267 115.587 178.588C115.159 178.884 115.748 179.42 116.351 179.372C120.074 179.088 124.504 181.367 128.37 181.617C127.643 184.075 126.328 189.759 126.208 190.149C124.931 189.794 117.553 187.157 114.708 186.815C113.62 186.68 113.318 187.657 114.321 187.966C117.709 189.001 121.484 191.47 125.339 192.628C124.39 194.595 123.001 196.292 121.345 197.834C119.979 197.139 118.22 196.69 116.731 196.153C114.106 195.205 111.444 194.323 108.74 193.501C107.994 193.273 107.475 193.911 108.116 194.24C110.222 195.316 112.316 196.395 114.468 197.428C115.882 198.11 117.548 199.022 119.268 199.559C116.732 201.441 113.696 203.034 110.231 204.407C107.166 201.202 100.55 199.373 95.4126 198.616C94.3621 198.463 94.019 199.487 95.0285 199.745C97.6215 200.419 100.136 201.629 102.398 202.708C104.17 203.559 105.744 204.57 107.467 205.438C104.784 206.375 96.8464 208.598 95.8037 208.887C94.6351 208.039 92.6945 207.396 91.4653 206.673C89.6216 205.586 87.8597 204.495 85.9396 203.469C84.5491 202.735 83.2417 203.972 84.4717 204.739C86.4274 205.963 88.0128 207.431 90.0033 208.655C90.6758 209.069 91.4268 209.506 92.2135 209.886C89.0683 210.8 86.1465 211.739 83.4068 212.762C82.1804 212.116 80.7642 211.606 79.5308 210.971C77.6834 210.02 76.1693 208.791 74.9335 207.514C74.2388 206.786 72.4675 207.152 73.0943 207.968C74.5379 209.815 77.3222 212.63 80.6338 213.872C78.4586 214.779 76.397 215.758 74.4736 216.848C74.0979 215.918 72.6324 215.23 71.5775 214.556C70.0084 213.556 68.4266 212.566 66.9446 211.513C66.2681 211.033 65.2302 211.534 65.8146 212.059C67.0333 213.129 68.2954 214.175 69.5698 215.215C70.5567 216.028 71.5132 217.259 73.0092 217.679C71.2812 218.736 69.6714 219.927 68.1155 221.206C67.1412 220.486 65.8889 219.863 64.7958 219.32C62.8902 218.37 61.0018 217.473 59.1793 216.455C58.2957 215.958 57.3525 216.595 57.693 217.173C58.4429 218.487 60.3393 219.568 61.9777 220.47C63.3605 221.221 64.6174 222.212 66.0016 223C64.7846 224.155 62.4286 226.853 62.3824 226.903C59.833 225.439 56.586 224.241 53.96 223.348C52.8877 222.98 52.0715 223.98 53.0411 224.435C55.0232 225.375 60.0703 228.451 60.7939 228.926C58.8882 231.441 57.2208 233.902 55.3013 236.231C53.6759 235.012 51.4766 233.94 49.6695 233.041C47.0451 231.727 44.0212 230.862 40.9338 230.249C39.9071 230.041 39.6901 231.028 40.5743 231.316C43.5735 232.295 46.1049 233.61 48.6023 235.072C50.316 236.078 51.7296 237.32 53.4768 238.286C52.4666 239.358 51.3505 240.394 50.0935 241.391C48.8427 240.5 39.5007 236.613 36.4401 235.307C36.0416 235.137 35.3563 235.345 35.6724 235.678C37.1971 237.271 47.1158 242.771 47.6954 243.134C46.668 243.798 43.6119 245.357 43.2569 245.518C39.4998 242.938 33.8885 241.301 29.3052 239.606C28.4926 239.3 27.9538 240.057 28.621 240.415C32.367 242.429 35.8935 245.046 39.999 246.859C36.1379 248.249 31.7886 249.29 27.3033 250.147C26.2909 249.049 24.3468 248.13 22.9247 247.367C20.2669 245.939 17.3523 244.727 14.6563 243.327C14.0042 242.988 13.3023 243.495 13.7661 243.907C15.6207 245.56 17.864 246.959 20.0515 248.44C21.0859 249.141 22.1353 250.067 23.279 250.88C19.1902 251.569 9.11084 253.134 8.01118 253.309C8.22772 251.358 4.90983 248.794 2.8509 247.61C2.25202 247.263 1.38807 247.715 1.73271 248.154C2.49927 249.117 4.46741 252.983 5.24896 253.765C-4.35857 255.365 -13.6727 257.241 -21.8548 260.346C-17.8287 256.54 -13.442 252.879 -8.53584 249.397C2.391 241.666 8.05457 231.077 17.0508 222.407C24.3075 215.409 32.5802 209.223 38.6376 201.653C46.6168 191.675 49.1216 181.049 62.3448 173.228C71.2117 167.99 81.7986 164.011 89.0983 157.748C95.3881 152.36 96.0407 143.932 98.4659 137.468C102.58 126.574 116.619 117.599 127.864 109.779C128.64 109.237 127.16 108.317 126.295 108.783C115.194 114.731 106.078 121.641 98.8132 129.727C92.7522 136.469 91.87 144.417 87.9568 151.766C83.1204 160.852 66.2102 166.137 55.7483 172.326C45.5863 178.337 42.4329 186.708 37.4436 194.84C31.6263 204.334 22.4418 212.41 12.7452 220.242C1.41842 229.394 -4.18449 240.878 -16.2451 249.8C-20.2 252.726 -23.5932 255.867 -26.7412 259.099C-25.2786 252.526 -25.7731 245.811 -26.7948 238.783C-28.916 224.237 -27.9401 212.156 -21.2923 198.735L-21.2889 198.734ZM-104.982 303.06C-102.664 304.413 -101.917 306.155 -102.054 308.024C-102.126 307.943 -105.318 304.378 -104.982 303.06ZM-98.1656 310.213C-97.0453 306.237 -97.818 302.373 -103.471 301.003C-96.1967 296.038 -68.0495 296.044 -60.2192 296.287C-57.9232 296.358 -55.633 296.479 -53.3326 296.613C-69.2667 299.44 -83.9773 305.287 -98.1656 310.213ZM-66.8379 332.218C-68.2881 332.009 -69.7372 331.737 -71.1398 331.416C-68.7426 328.356 -66.1379 325.36 -63.527 322.362C-64.9864 325.594 -66.1604 328.871 -66.8379 332.218ZM309.714 185.693C307.466 192.484 305.166 198.107 301.536 203.227C299.976 202.906 292.445 201.359 290.211 200.954C289.569 200.833 289.243 201.449 289.79 201.691C292.705 202.954 296.369 204.46 299.912 205.304C299.015 206.405 298.061 207.491 297.012 208.552C295.521 206.051 288.731 204.313 285.401 203.585C284.347 203.362 283.337 204.237 284.469 204.692C286.471 205.504 288.459 206.342 290.313 207.291C292.045 208.185 293.387 209.595 295.453 210.058C293.949 211.441 292.3 212.819 290.444 214.188C289.159 213.392 287.346 213.006 285.678 212.622C283.291 212.075 280.788 211.684 278.499 210.935C277.733 210.686 277.239 211.349 277.867 211.695C279.54 212.605 281.257 213.42 283.124 214.15C284.491 214.683 286.135 215.538 287.744 216.036C286.577 216.805 281.097 220.123 279.558 221C276.944 218.828 270.785 217.877 267.357 217.655C265.795 217.558 265.684 218.888 267.185 219.165C269.487 219.592 275.963 221.991 276.982 222.474C275.097 223.528 273.211 224.545 271.33 225.57C269.718 224.895 267.874 224.424 266.178 223.875C263.686 223.082 261.128 222.453 258.48 222.016C257.437 221.846 256.873 222.826 257.797 223.218C260.686 224.456 264.069 226.492 267.549 227.632C265.818 228.564 264.097 229.505 262.394 230.444C261.616 229.329 259.735 228.465 258.144 227.818C255.703 226.825 253.106 226.493 250.4 226.555C248.748 226.594 248.962 228.224 250.578 228.405C252.723 228.635 254.558 229.236 256.319 230.126C257.532 230.737 258.343 231.57 259.54 232.062C257.631 233.135 255.731 234.224 253.875 235.333C252.988 234.352 251.416 233.483 250.094 232.911C247.418 231.745 244.359 231.136 241.357 230.592C240.071 230.361 239.621 231.714 240.889 232.002C243.282 232.538 245.525 233.285 247.586 234.297C248.965 234.975 250.01 236.146 251.294 236.945C249.134 238.283 247.06 239.675 245.035 241.098C243.707 240.422 242.049 239.903 240.647 239.418C238.218 238.58 235.636 237.963 233.076 237.36C231.872 237.076 231.263 238.095 232.432 238.482C234.792 239.26 236.996 240.19 239.143 241.212C240.228 241.727 241.344 242.375 242.507 242.915C240.336 244.545 238.266 246.256 236.309 248.057C235.64 247.658 234.951 247.286 234.317 246.998C232.188 246.022 229.588 245.564 227.129 245.394C225.949 245.311 225.88 246.319 227 246.527C229.091 246.916 230.885 247.575 232.643 248.442C233.396 248.811 233.974 249.298 234.563 249.776C233.3 251.036 232.057 252.317 230.916 253.672C228.9 251.903 224.756 251.042 221.722 250.88C220.649 250.82 220.59 251.7 221.605 251.908C223.307 252.248 224.894 252.887 226.263 253.659C227.408 254.307 228.182 255.099 229.084 255.847C227.195 258.165 225.416 260.331 223.638 262.333C222.226 259.499 215.768 258.312 211.971 257.663C210.98 257.495 210.663 258.493 211.611 258.729C213.715 259.262 215.653 259.931 217.498 260.804C219.304 261.663 220.358 262.898 221.979 263.856C222.05 263.897 218.521 267.462 216.404 269.032C215.277 268.068 213.643 267.233 212.247 266.546C209.334 265.121 205.763 264.212 202.295 263.839C200.563 263.653 200.421 265.261 202.103 265.519C205.16 265.995 207.735 266.981 210.279 268.232C211.631 268.896 212.769 269.916 214.074 270.688C212.066 271.959 209.712 273.11 207.087 274.197C205.69 273.007 203.596 271.933 202.09 271.134C199.167 269.591 195.798 268.595 192.205 268.344C191.394 268.288 191.013 269.077 191.897 269.265C195.031 269.934 197.62 271.457 200.037 272.906C201.298 273.658 202.35 274.658 203.525 275.558C201.937 276.1 192.989 278.226 192.945 278.152C191.288 274.766 185.195 273.177 181.179 271.036C179.834 270.315 178.547 271.525 179.745 272.266C181.603 273.428 183.655 274.424 185.641 275.483C187.562 276.501 189.138 277.696 190.902 278.814C186.915 279.632 178.921 280.826 178.906 280.699C178.702 279.382 176.23 278.107 174.811 277.164C173.155 276.062 171.301 275.165 169.324 274.335C168.15 273.838 166.98 274.783 168.122 275.361C169.972 276.286 171.452 277.456 172.929 278.607C174.023 279.45 175.084 280.726 176.61 281.296C172.555 281.89 168.499 282.444 164.441 283.012C163.575 281.857 161.869 280.885 160.685 279.863C158.81 278.241 157.263 276.481 155.612 274.775C154.638 273.748 152.099 274.283 153.034 275.402C154.508 277.183 155.905 278.981 157.578 280.701C158.472 281.617 159.5 282.727 160.823 283.542C159.07 283.8 157.296 284.035 155.57 284.315C154.694 284.461 152.171 281.955 151.272 281.031C150.296 280.021 149.261 279.02 148.009 278.14C147.288 277.644 146.285 278.043 146.599 278.643C147.642 280.592 148.909 283.13 151.29 284.641C151.523 284.785 147.444 285.593 145.172 285.924C144.469 284.913 143.363 283.921 142.771 282.904C141.82 281.267 141.105 279.645 139.882 278.05C139.301 277.295 137.693 277.709 138.134 278.475C139.232 280.349 139.164 284.257 141.327 286.461C138.286 286.863 132.291 287.372 132.291 287.324C132.236 286.023 130.876 284.974 130.276 283.721C129.557 282.235 129.556 280.717 129.245 279.215C129.111 278.51 127.33 278.292 127.045 278.964C126.187 280.993 125.657 285.904 129.267 287.581C125.424 287.796 121.584 287.875 117.693 287.648C117.733 286.985 116.765 283.821 116.745 282.876C116.716 281.399 116.642 279.957 115.909 278.498C115.549 277.786 114.077 277.864 114.173 278.605C114.458 280.885 111.851 284.874 114.003 287.275C110.829 286.962 107.607 286.463 104.329 285.744C104.663 284.543 104.489 283.266 104.682 282.03C104.967 280.247 105.598 278.526 105.91 276.754C106.083 275.747 103.621 275.247 103.153 276.195C102.037 278.454 99.7735 282.123 100.769 284.899C98.538 284.307 96.3059 283.675 94.0021 282.859C81.9779 278.622 71.9547 275.874 59.5926 275.32C76.8299 269.61 88.5955 258.85 99.6412 248.749C108.504 240.643 117.126 233.17 129.732 227.251C142.553 221.235 153.957 216.088 163.767 207.984C177.476 196.669 191.291 191.558 213.705 188.593C228.501 186.634 238.71 181.692 250.818 176.681C273.707 167.211 303.416 173.224 324.137 162.81C318.924 170.36 312.468 177.412 309.714 185.693Z" fill="#E7EAF5" fill-opacity="0.71"/>
<path d="M235.659 207.555C204.187 215.336 186.401 234.983 155.007 242.953C124.801 250.63 107.57 269.941 74.4209 274.359C73.242 274.518 73.5259 275.694 74.8107 275.624C106.158 273.934 123.774 256.376 149.037 247.53C163.937 242.316 177.685 238.907 190.806 231.785C205.813 223.638 218.989 215.221 237.422 209.962C239.649 209.318 237.982 206.98 235.659 207.555Z" fill="#E7EAF5" fill-opacity="0.71"/>
<path d="M163.182 89.5586C164.476 89.002 166.04 88.5643 167.608 88.3506C169.347 88.1197 171.116 88.4348 172.359 87.5535C172.977 87.1216 172.601 86.404 171.919 86.022C170.212 85.0576 167.639 85.6848 165.91 86.0855C163.979 86.5365 162.441 87.2963 161.304 88.3657C160.518 89.094 162.053 90.0387 163.182 89.5586Z" fill="#E7EAF5" fill-opacity="0.71"/>
</svg>
