<svg width="334" height="359" viewBox="0 0 334 359" fill="none" xmlns="http://www.w3.org/2000/svg">
<path d="M317.103 156.547C296.86 173.411 262.192 164.056 236.86 174.341C220.315 181.054 206.569 184.853 186.935 187.709C175.893 189.318 166.134 192.951 158.86 198.272C147.445 206.625 137.984 215.03 123.43 221.395C112.473 226.185 102.876 230.999 94.7384 237.728C77.5553 251.922 64.4176 268.832 37.2266 276.023C25.7227 276.542 15.3514 279.394 5.93859 283.613C-4.8736 288.453 -13.2737 293.461 -27.2203 294.792C-36.0806 295.641 -45.6864 294.778 -55.0349 293.959C-52.622 288.928 -40.4949 269.234 -40.1696 269.029C-13.3864 252.584 34.6427 259.981 52.3827 236.463C57.6871 229.434 61.4771 222.657 71.3948 217.769C80.3289 213.368 93.0299 211.863 102.97 208.416C118.166 203.147 120.877 194.789 123.315 184.293C126.424 170.864 141.318 162.185 152.856 151.989C163.859 142.261 164.693 131.833 164.812 119.585C164.94 104.398 169.492 89.2003 167.023 73.8863C164.596 58.8662 150.854 47.9102 154.902 33.1659C155.706 32.0623 156.442 30.9067 157.08 29.6815C157.938 28.0596 153.878 26.8673 153.014 28.4886C146.778 40.3365 94.7774 68.7685 81.5223 75.3883C50.8814 90.7037 29.7843 113.38 10.1298 134.597C-8.22883 154.428 -24.7156 175.356 -36.499 197.488C-41.7634 207.375 -44.4608 217.247 -43.6711 228.095C-42.7581 240.559 -39.7787 252.258 -42.5517 264.32C-42.9339 264.772 -56.1736 284.552 -60.507 293.501C-62.0138 293.38 -63.5044 293.269 -64.9908 293.173C-78.7973 292.304 -143.165 293.119 -116.504 309.88C-115.459 310.538 -114.211 310.384 -113.435 309.889C-113.704 310.72 -114.054 311.549 -114.483 312.362C-115.028 313.378 -113.215 314.78 -111.517 314.24C-95.6608 309.193 -80.0423 304.508 -63.7337 300.272C-65.0331 303.017 -68.7973 310.384 -69.1839 311.179C-75.4981 317.851 -82.0097 324.472 -87.4187 331.501C-87.9304 332.172 -87.1175 333.086 -86.0627 333.404C-82.7059 334.403 -79.6503 334.938 -76.1128 335.37C-74.8479 335.525 -73.8148 334.964 -73.6807 334.195C-72.2626 325.619 -59.3334 302.349 -57.4464 298.674C-55.9232 298.294 -52.8018 297.436 -52.7224 297.401C-43.8532 298.052 -35.0004 298.639 -26.1691 298.208C-15.6172 297.69 -6.70939 294.338 1.3106 290.569C8.8533 287.021 15.2751 283.43 24.2076 281.085C29.7709 279.629 43.0111 279.102 43.6081 279.104C64.3696 279.236 78.3207 287.66 97.5633 291.187C113.276 294.07 128.93 291.922 143.239 289.145C169.786 283.993 200.563 283.569 217.266 268.143C226.43 259.687 230.421 249.72 241.507 241.861C253.217 233.578 268.433 227.427 281.157 219.813C292.112 213.262 298.598 206.139 301.955 196.498C303.887 190.954 304.63 185.293 307.102 179.844C310.558 172.233 317.285 165.608 320.632 157.922C321.218 156.607 318.463 155.417 317.104 156.549L317.103 156.547ZM-32.2889 198.734C-20.0658 174.071 -0.0172729 151.067 20.455 129.349C41.0247 107.533 64.0145 87.1918 96.1376 72.0114C109.294 65.8029 118.576 57.3676 131.114 50.7365C138.31 46.9216 144.818 43.2337 149.874 38.6839C149.074 44.4374 150.762 50.2471 153.8 56.5987C152.858 56.8691 147.509 58.9364 146.018 60.0022C145.399 60.4414 146.418 61.2284 147.252 60.9897C149.226 60.419 154.534 59.3736 155.097 59.2728C156.177 61.4052 157.265 63.5202 158.267 65.6289C154.653 65.8185 151.83 67.5137 148.927 68.6019C148.26 68.8486 148.869 69.5633 149.595 69.5104C152.9 69.2819 156.193 68.4984 159.185 67.7099C160.073 69.7434 160.872 71.7997 161.45 73.9043L161.427 73.9017C157.333 74.5426 153.826 75.8225 151.02 77.7394C150.717 77.947 151.213 78.3334 151.616 78.2143C154.824 77.2525 158.363 76.7573 162 76.5703C162.217 77.8711 162.358 79.1851 162.41 80.5073C162.254 80.3466 153.98 80.13 151.144 81.3836C150.637 81.6081 151.068 82.2072 151.701 82.1474C153.297 82.0028 154.914 81.9121 156.535 81.851C158.196 81.7909 162.302 81.6097 162.475 81.3654C162.542 85.8171 161.862 90.3669 161.147 94.8097C161.004 94.7384 153.285 94.6841 151.593 96.5996C151.273 96.9665 151.84 97.6398 152.588 97.3949C155.157 96.5436 160.744 96.5568 160.881 96.5248C160.506 98.8507 159.93 103.5 159.923 103.566C157.075 103.652 154.525 104.432 151.754 104.714C150.967 104.793 150.936 105.622 151.846 105.685C154.416 105.846 157.155 106.209 159.75 106.149C159.568 108.82 159.444 111.482 159.363 114.131C156.53 113.68 153.204 113.785 150.566 114.174C149.391 114.348 149.336 115.438 150.708 115.628C153.485 116.006 156.471 116.699 159.268 116.852C159.186 119.149 159.048 121.429 158.855 123.684C158.055 123.369 157.179 123.112 156.314 122.918C153.971 122.39 151.625 122.552 149.44 122.985C148.704 123.132 148.909 123.981 149.753 124.011C151.665 124.086 153.326 124.433 155.101 125.001C156.422 125.427 157.327 126.142 158.57 126.541C158.371 128.091 158.063 129.618 157.733 131.142C156.563 130.507 154.985 130.041 153.811 129.651C151.422 128.869 148.991 128.661 146.553 129.022C145.721 129.143 145.615 130.022 146.656 130.1C149.217 130.29 151.34 131.169 153.398 132.203C154.71 132.862 155.752 133.553 157.138 133.663C156.454 136.049 155.44 138.383 154.204 140.673C154.255 140.481 151.178 138.653 149.227 138.306C147.094 137.927 145.001 137.549 142.823 137.408C141.74 137.336 140.852 138.312 142.04 138.785C143.872 139.511 145.761 140.096 147.7 140.655C149.476 141.165 153.813 141.201 153.987 141.045C153.024 142.775 151.862 144.465 150.523 146.135C149.64 145.122 147.729 144.321 146.279 143.756C143.945 142.841 141.344 142.395 138.759 142.412C137.76 142.423 137.728 143.369 138.622 143.617C140.529 144.146 142.199 144.875 143.825 145.728C145.332 146.516 146.76 147.936 148.664 148.241C148.308 148.615 148.054 149.004 147.664 149.374C145.729 151.225 143.666 152.984 141.57 154.722C140.753 154.204 139.709 153.791 138.743 153.403C137.017 152.715 135.327 152.265 133.39 152.045C132.004 151.89 131.088 153.154 132.435 153.711C133.942 154.337 135.461 154.965 136.923 155.63C137.7 155.99 138.415 156.39 139.17 156.689C136.978 158.459 134.787 160.216 132.646 161.992C131.743 161.515 130.709 161.119 129.791 160.721C127.677 159.813 125.441 159.213 123.039 158.906C121.505 158.713 121.166 160.061 122.498 160.498C124.522 161.169 126.253 162.07 128.022 163.001C128.706 163.362 129.409 163.765 130.146 164.123C129.121 165.019 128.141 165.934 127.182 166.858C126.22 166.389 125.058 166.041 123.964 165.656C121.611 164.819 119.226 164.104 116.761 163.427C116.006 163.224 115.169 163.796 115.839 164.232C117.615 165.402 119.477 166.487 121.493 167.483C122.548 167.999 123.706 168.692 124.929 169.161C123.6 170.59 122.357 172.073 121.246 173.625C120.04 173.356 118.761 173.177 117.572 172.914C114.98 172.336 112.411 171.754 109.882 171.029C109.084 170.806 108.498 171.465 109.216 171.83C111.219 172.843 113.314 173.712 115.52 174.524C116.778 174.99 118.297 175.515 119.819 175.865C119.332 176.718 118.852 177.577 118.483 178.47C116.249 177.904 106.479 177.267 104.587 178.588C104.159 178.884 104.748 179.42 105.351 179.372C109.074 179.088 113.504 181.367 117.37 181.617C116.643 184.075 115.328 189.759 115.208 190.149C113.931 189.794 106.553 187.157 103.708 186.815C102.62 186.68 102.318 187.657 103.321 187.966C106.709 189.001 110.484 191.47 114.339 192.628C113.39 194.595 112.001 196.292 110.345 197.834C108.979 197.139 107.22 196.69 105.731 196.153C103.106 195.205 100.444 194.323 97.7401 193.501C96.9942 193.273 96.4747 193.911 97.1161 194.24C99.2222 195.316 101.316 196.395 103.468 197.428C104.882 198.11 106.548 199.022 108.268 199.559C105.732 201.441 102.696 203.034 99.2312 204.407C96.1664 201.202 89.5496 199.373 84.4125 198.616C83.3621 198.463 83.019 199.487 84.0285 199.745C86.6215 200.418 89.1358 201.629 91.3982 202.708C93.17 203.559 94.7437 204.57 96.4672 205.438C93.7836 206.375 85.8464 208.598 84.8037 208.887C83.6351 208.039 81.6945 207.396 80.4653 206.673C78.6216 205.586 76.8597 204.495 74.9396 203.469C73.5491 202.735 72.2417 203.972 73.4717 204.739C75.4274 205.963 77.0128 207.431 79.0033 208.655C79.6758 209.069 80.4268 209.506 81.2135 209.886C78.0683 210.8 75.1465 211.739 72.4068 212.762C71.1804 212.116 69.7642 211.606 68.5308 210.971C66.6834 210.02 65.1693 208.791 63.9335 207.514C63.2388 206.786 61.4675 207.152 62.0943 207.968C63.5379 209.815 66.3222 212.63 69.6338 213.872C67.4586 214.779 65.397 215.758 63.4736 216.848C63.0979 215.918 61.6324 215.23 60.5775 214.557C59.0084 213.556 57.4266 212.566 55.9446 211.513C55.2681 211.033 54.2302 211.534 54.8146 212.059C56.0333 213.129 57.2954 214.175 58.5698 215.215C59.5567 216.028 60.5132 217.259 62.0092 217.679C60.2812 218.736 58.6714 219.927 57.1155 221.206C56.1412 220.486 54.8889 219.863 53.7958 219.32C51.8902 218.37 50.0018 217.473 48.1793 216.455C47.2957 215.958 46.3525 216.595 46.693 217.173C47.4429 218.487 49.3393 219.568 50.9778 220.47C52.3605 221.221 53.6174 222.212 55.0016 223C53.7846 224.156 51.4286 226.853 51.3824 226.903C48.833 225.439 45.586 224.241 42.9601 223.348C41.8877 222.98 41.0715 223.98 42.0411 224.435C44.0232 225.375 49.0703 228.451 49.7939 228.926C47.8882 231.441 46.2208 233.902 44.3013 236.231C42.6759 235.012 40.4766 233.94 38.6695 233.041C36.0451 231.727 33.0212 230.862 29.9338 230.249C28.9071 230.041 28.6901 231.028 29.5743 231.316C32.5736 232.295 35.1049 233.61 37.6023 235.072C39.316 236.078 40.7296 237.32 42.4768 238.286C41.4666 239.358 40.3505 240.394 39.0935 241.391C37.8427 240.5 28.5007 236.613 25.4401 235.307C25.0416 235.137 24.3563 235.345 24.6724 235.678C26.1971 237.271 36.1158 242.771 36.6955 243.134C35.668 243.798 32.6119 245.357 32.2569 245.518C28.4998 242.938 22.8885 241.301 18.3052 239.606C17.4926 239.3 16.9538 240.057 17.621 240.415C21.367 242.429 24.8935 245.046 28.999 246.859C25.1379 248.249 20.7886 249.29 16.3033 250.147C15.2909 249.049 13.3468 248.13 11.9247 247.367C9.26693 245.939 6.35227 244.727 3.65631 243.327C3.00422 242.988 2.30229 243.495 2.76605 243.907C4.6207 245.56 6.86398 246.959 9.05147 248.44C10.0859 249.141 11.1353 250.067 12.279 250.88C8.19021 251.569 -1.88916 253.134 -2.98882 253.309C-2.77228 251.358 -6.09017 248.794 -8.14909 247.61C-8.74798 247.263 -9.61193 247.715 -9.26729 248.154C-8.50073 249.117 -6.53259 252.983 -5.75104 253.765C-15.3586 255.365 -24.6727 257.241 -32.8548 260.346C-28.8287 256.54 -24.442 252.879 -19.5358 249.397C-8.609 241.666 -2.94543 231.077 6.05079 222.407C13.3075 215.409 21.5801 209.223 27.6376 201.653C35.6168 191.675 38.1216 181.049 51.3448 173.228C60.2117 167.99 70.7986 164.011 78.0983 157.748C84.3881 152.36 85.0407 143.932 87.4659 137.468C91.5798 126.574 105.619 117.599 116.864 109.779C117.64 109.237 116.16 108.317 115.295 108.783C104.194 114.731 95.0785 121.641 87.8132 129.727C81.7522 136.469 80.87 144.417 76.9568 151.766C72.1204 160.852 55.2102 166.137 44.7483 172.326C34.5863 178.337 31.4329 186.708 26.4436 194.84C20.6263 204.334 11.4418 212.41 1.74517 220.242C-9.58159 229.394 -15.1845 240.878 -27.2451 249.8C-31.2 252.726 -34.5932 255.867 -37.7412 259.099C-36.2786 252.526 -36.7731 245.811 -37.7948 238.783C-39.916 224.237 -38.9401 212.156 -32.2923 198.735L-32.2889 198.734ZM-115.982 303.06C-113.664 304.413 -112.917 306.155 -113.054 308.024C-113.126 307.943 -116.318 304.378 -115.982 303.06ZM-109.166 310.213C-108.045 306.237 -108.818 302.373 -114.471 301.003C-107.197 296.038 -79.0495 296.044 -71.2192 296.287C-68.9232 296.358 -66.633 296.479 -64.3326 296.613C-80.2667 299.44 -94.9773 305.287 -109.166 310.213ZM-77.8379 332.218C-79.2881 332.009 -80.7372 331.737 -82.1398 331.416C-79.7426 328.356 -77.1379 325.36 -74.527 322.362C-75.9864 325.594 -77.1604 328.871 -77.8379 332.218ZM298.714 185.693C296.466 192.484 294.166 198.107 290.536 203.227C288.976 202.906 281.445 201.359 279.211 200.954C278.569 200.833 278.243 201.449 278.79 201.691C281.705 202.954 285.369 204.46 288.912 205.304C288.015 206.405 287.061 207.491 286.012 208.552C284.521 206.051 277.731 204.313 274.401 203.585C273.347 203.362 272.337 204.237 273.469 204.692C275.471 205.504 277.459 206.342 279.313 207.291C281.045 208.185 282.387 209.595 284.453 210.058C282.949 211.441 281.3 212.819 279.444 214.188C278.159 213.392 276.346 213.006 274.678 212.622C272.291 212.075 269.788 211.683 267.499 210.935C266.733 210.686 266.239 211.349 266.867 211.695C268.54 212.605 270.257 213.42 272.124 214.15C273.491 214.683 275.135 215.538 276.744 216.036C275.577 216.805 270.097 220.123 268.558 221C265.944 218.828 259.785 217.877 256.357 217.655C254.795 217.558 254.684 218.888 256.185 219.165C258.487 219.592 264.963 221.991 265.982 222.474C264.097 223.528 262.211 224.545 260.33 225.57C258.718 224.895 256.874 224.424 255.178 223.875C252.686 223.082 250.128 222.453 247.48 222.016C246.437 221.846 245.873 222.826 246.797 223.218C249.686 224.456 253.069 226.492 256.549 227.632C254.818 228.564 253.097 229.505 251.394 230.444C250.616 229.329 248.735 228.465 247.144 227.818C244.703 226.825 242.106 226.493 239.4 226.555C237.748 226.594 237.962 228.224 239.578 228.405C241.723 228.635 243.558 229.236 245.319 230.126C246.532 230.737 247.343 231.57 248.54 232.062C246.631 233.135 244.731 234.224 242.875 235.333C241.988 234.352 240.416 233.483 239.094 232.911C236.418 231.745 233.359 231.136 230.357 230.592C229.071 230.361 228.621 231.714 229.889 232.002C232.282 232.538 234.525 233.285 236.586 234.297C237.965 234.975 239.01 236.146 240.294 236.945C238.134 238.283 236.06 239.675 234.035 241.098C232.707 240.422 231.049 239.903 229.647 239.418C227.218 238.58 224.636 237.963 222.076 237.36C220.872 237.076 220.263 238.095 221.432 238.482C223.792 239.26 225.996 240.19 228.143 241.212C229.228 241.727 230.343 242.375 231.507 242.915C229.336 244.545 227.266 246.256 225.309 248.057C224.64 247.658 223.951 247.286 223.317 246.998C221.188 246.022 218.588 245.564 216.129 245.394C214.949 245.311 214.88 246.319 216 246.527C218.091 246.916 219.885 247.575 221.643 248.442C222.396 248.811 222.974 249.298 223.563 249.776C222.3 251.036 221.057 252.317 219.916 253.672C217.9 251.903 213.756 251.042 210.722 250.88C209.649 250.82 209.59 251.7 210.605 251.908C212.307 252.248 213.894 252.887 215.263 253.659C216.408 254.307 217.182 255.099 218.084 255.847C216.195 258.165 214.416 260.331 212.638 262.333C211.226 259.499 204.768 258.312 200.971 257.663C199.98 257.495 199.663 258.493 200.611 258.729C202.715 259.262 204.653 259.931 206.498 260.804C208.304 261.663 209.358 262.898 210.979 263.856C211.05 263.897 207.521 267.462 205.404 269.032C204.277 268.068 202.643 267.233 201.247 266.546C198.334 265.121 194.763 264.212 191.295 263.839C189.563 263.653 189.421 265.261 191.103 265.519C194.16 265.995 196.735 266.981 199.279 268.232C200.631 268.896 201.769 269.916 203.074 270.688C201.066 271.959 198.712 273.11 196.087 274.197C194.69 273.007 192.596 271.933 191.09 271.134C188.167 269.591 184.798 268.595 181.205 268.344C180.394 268.288 180.013 269.077 180.897 269.265C184.031 269.934 186.62 271.457 189.037 272.906C190.298 273.658 191.35 274.658 192.525 275.558C190.937 276.1 181.989 278.226 181.945 278.152C180.288 274.766 174.195 273.177 170.179 271.036C168.834 270.315 167.547 271.525 168.745 272.266C170.603 273.428 172.655 274.424 174.641 275.483C176.562 276.501 178.138 277.696 179.902 278.814C175.915 279.632 167.921 280.826 167.906 280.699C167.702 279.382 165.23 278.107 163.811 277.164C162.155 276.062 160.301 275.165 158.324 274.335C157.15 273.838 155.98 274.783 157.122 275.361C158.972 276.286 160.452 277.456 161.929 278.607C163.023 279.45 164.084 280.726 165.61 281.296C161.555 281.89 157.499 282.444 153.441 283.012C152.575 281.857 150.869 280.885 149.685 279.863C147.81 278.241 146.263 276.481 144.612 274.775C143.638 273.748 141.099 274.283 142.034 275.402C143.508 277.183 144.905 278.981 146.578 280.701C147.472 281.617 148.5 282.727 149.823 283.542C148.07 283.8 146.296 284.035 144.57 284.315C143.694 284.461 141.171 281.955 140.272 281.031C139.296 280.021 138.261 279.02 137.009 278.14C136.288 277.644 135.285 278.043 135.599 278.643C136.642 280.592 137.909 283.13 140.29 284.641C140.523 284.785 136.444 285.593 134.172 285.924C133.469 284.913 132.363 283.921 131.771 282.904C130.82 281.267 130.105 279.645 128.882 278.05C128.301 277.295 126.693 277.709 127.134 278.475C128.232 280.349 128.164 284.257 130.327 286.461C127.286 286.863 121.291 287.372 121.291 287.324C121.236 286.023 119.876 284.974 119.276 283.721C118.557 282.235 118.556 280.717 118.245 279.215C118.111 278.51 116.33 278.292 116.045 278.964C115.187 280.993 114.657 285.904 118.267 287.581C114.424 287.796 110.584 287.875 106.693 287.648C106.733 286.985 105.765 283.821 105.745 282.876C105.716 281.399 105.642 279.957 104.909 278.498C104.549 277.786 103.077 277.864 103.173 278.605C103.458 280.885 100.851 284.874 103.003 287.275C99.8295 286.962 96.6073 286.463 93.3288 285.744C93.663 284.543 93.4893 283.266 93.6823 282.03C93.9667 280.247 94.598 278.526 94.9102 276.754C95.083 275.747 92.6212 275.247 92.1534 276.195C91.037 278.454 88.7735 282.123 89.7689 284.899C87.538 284.307 85.3059 283.675 83.0021 282.859C70.9779 278.622 60.9547 275.874 48.5926 275.32C65.8299 269.61 77.5955 258.85 88.6412 248.749C97.5041 240.643 106.126 233.17 118.732 227.251C131.553 221.235 142.957 216.088 152.767 207.984C166.476 196.669 180.291 191.558 202.705 188.593C217.501 186.634 227.71 181.692 239.818 176.681C262.707 167.211 292.416 173.224 313.137 162.81C307.924 170.36 301.468 177.412 298.714 185.693Z" fill="#E7EAF5" fill-opacity="0.71"/>
<path d="M224.659 207.555C193.187 215.336 175.401 234.983 144.007 242.953C113.801 250.63 96.5702 269.941 63.4209 274.359C62.242 274.518 62.5259 275.694 63.8107 275.624C95.1576 273.934 112.774 256.376 138.037 247.53C152.937 242.316 166.685 238.907 179.806 231.785C194.813 223.638 207.989 215.221 226.422 209.962C228.649 209.318 226.982 206.98 224.659 207.555Z" fill="#E7EAF5" fill-opacity="0.71"/>
<path d="M152.182 89.5586C153.476 89.002 155.04 88.5643 156.608 88.3506C158.347 88.1197 160.116 88.4348 161.359 87.5535C161.977 87.1216 161.601 86.404 160.919 86.022C159.212 85.0576 156.639 85.6848 154.91 86.0855C152.979 86.5365 151.441 87.2963 150.304 88.3657C149.518 89.094 151.053 90.0387 152.182 89.5586Z" fill="#E7EAF5" fill-opacity="0.71"/>
</svg>
