<svg width="300" height="330" viewBox="0 0 300 330" fill="none" xmlns="http://www.w3.org/2000/svg">
<path d="M146.178 12.5895C164.423 32.2831 156.097 67.2421 167.732 92.2357C175.328 108.559 179.797 122.179 183.521 141.715C185.618 152.702 189.76 162.34 195.551 169.441C204.644 180.584 213.713 189.77 220.87 204.115C226.257 214.915 231.615 224.354 238.898 232.272C254.261 248.992 272.277 261.581 280.783 288.532C281.77 300.016 285.128 310.292 289.862 319.566C295.295 330.219 300.808 338.456 302.73 352.355C303.956 361.185 303.438 370.816 302.955 380.188C297.654 377.938 276.795 366.45 276.57 366.131C258.502 339.886 264.28 291.633 239.245 274.656C231.762 269.58 224.599 266.009 219.152 256.252C214.247 247.462 212.193 234.814 208.236 224.988C202.189 209.966 193.431 207.525 182.473 205.426C168.451 202.752 158.886 188.141 147.882 176.935C137.383 166.249 126.556 165.751 113.874 166.027C98.1497 166.389 82.2415 162.328 66.4874 165.29C51.0358 168.2 40.2331 182.292 24.8138 178.72C23.64 177.952 22.4151 177.254 21.122 176.655C19.4097 175.849 18.3344 179.947 20.0463 180.758C32.5533 186.611 64.015 237.679 71.385 250.717C88.4353 280.855 112.732 301.215 135.46 320.18C156.704 337.894 179.011 353.701 202.379 364.768C212.818 369.712 223.141 372.09 234.338 370.951C247.204 369.637 259.197 366.281 271.79 368.664C272.272 369.032 293.264 381.63 302.695 385.674C302.629 387.184 302.573 388.678 302.531 390.167C302.172 403.997 305.531 468.32 321.838 441.126C322.479 440.06 322.27 438.818 321.727 438.058C322.598 438.3 323.47 438.623 324.328 439.026C325.401 439.538 326.781 437.68 326.156 436C320.312 420.311 314.852 404.848 309.83 388.681C312.722 389.892 320.494 393.417 321.332 393.778C328.485 399.875 335.593 406.172 343.079 411.352C343.794 411.842 344.708 411 344.996 409.936C345.898 406.548 346.333 403.476 346.642 399.925C346.753 398.656 346.132 397.641 345.331 397.532C336.399 396.39 311.808 384.215 307.93 382.447C307.477 380.937 306.467 377.844 306.428 377.766C306.755 368.878 307.016 360.009 306.225 351.194C305.276 340.662 301.458 331.865 297.244 323.969C293.276 316.543 289.308 310.239 286.532 301.384C284.807 295.87 283.744 282.65 283.723 282.053C283.048 261.294 291.222 247.075 294.12 227.725C296.489 211.923 293.655 196.344 290.221 182.129C283.85 155.755 282.207 125 265.588 108.8C256.477 99.9116 246.005 96.2432 237.437 85.4129C228.406 73.974 221.445 58.9606 213.066 46.4862C205.857 35.7457 198.231 29.4904 188.12 26.4455C182.307 24.6932 176.418 24.1323 170.681 21.8365C162.669 18.6274 155.548 12.1162 147.463 9.01701C146.078 8.47443 144.954 11.2666 146.179 12.5892L146.178 12.5895ZM203.504 360.519C177.499 349.094 152.904 329.793 129.625 310.027C106.24 290.167 84.2868 267.839 67.3183 236.215C60.3778 223.263 51.2839 214.255 43.9302 201.935C39.7003 194.864 35.6287 188.477 30.7217 183.569C36.7082 184.183 42.6555 182.308 49.1109 179.067C49.4276 180 51.7765 185.28 52.938 186.737C53.4167 187.341 54.1915 186.297 53.9119 185.471C53.2439 183.516 51.9544 178.244 51.8281 177.684C53.9929 176.535 56.1395 175.379 58.283 174.31C58.6205 177.917 60.4855 180.684 61.7253 183.552C62.0068 184.21 62.7227 183.578 62.6395 182.854C62.2738 179.557 61.3341 176.291 60.401 173.325C62.4711 172.372 64.5682 171.507 66.7239 170.861L66.7221 170.884C67.5455 174.957 69.0074 178.421 71.1012 181.165C71.3279 181.46 71.7086 180.952 71.5695 180.554C70.4485 177.377 69.7976 173.855 69.4619 170.225C70.7997 169.966 72.1543 169.783 73.5208 169.688C73.3606 169.849 73.4598 178.128 74.8683 180.923C75.1205 181.422 75.7238 180.972 75.6371 180.341C75.425 178.751 75.2679 177.136 75.1414 175.518C75.0142 173.86 74.6661 169.761 74.4064 169.596C79.0115 169.385 83.7474 169.919 88.3739 170.49C88.3057 170.635 88.5512 178.353 90.6001 179.984C90.9923 180.292 91.667 179.703 91.3844 178.963C90.4027 176.422 90.198 170.836 90.1594 170.7C92.5815 171 97.4168 171.426 97.4845 171.432C97.6851 174.276 98.5923 176.8 98.9924 179.561C99.105 180.345 99.9641 180.349 99.994 179.437C100.06 176.863 100.329 174.113 100.165 171.521C102.937 171.617 105.697 171.655 108.443 171.65C108.086 174.497 108.325 177.819 108.831 180.444C109.057 181.613 110.187 181.632 110.33 180.255C110.613 177.466 111.213 174.459 111.262 171.658C113.643 171.666 116.008 171.73 118.35 171.85C118.055 172.66 117.823 173.544 117.656 174.416C117.202 176.775 117.461 179.115 117.995 181.285C118.176 182.017 119.046 181.784 119.044 180.94C119.047 179.025 119.341 177.354 119.86 175.561C120.249 174.226 120.954 173.298 121.318 172.043C122.93 172.193 124.523 172.451 126.113 172.732C125.501 173.922 125.081 175.514 124.723 176.7C124.007 179.114 123.887 181.551 124.356 183.977C124.514 184.805 125.428 184.883 125.468 183.839C125.564 181.272 126.391 179.122 127.381 177.031C128.012 175.698 128.686 174.635 128.746 173.245C131.242 173.852 133.698 174.791 136.116 175.953C135.915 175.908 134.143 179.043 133.861 181.004C133.552 183.149 133.243 185.253 133.181 187.435C133.149 188.52 134.195 189.377 134.638 188.174C135.317 186.319 135.849 184.411 136.351 182.455C136.81 180.663 136.678 176.327 136.509 176.157C138.338 177.064 140.133 178.171 141.914 179.456C140.899 180.372 140.145 182.308 139.617 183.776C138.761 186.138 138.401 188.753 138.52 191.337C138.57 192.335 139.55 192.337 139.773 191.435C140.246 189.511 140.935 187.819 141.754 186.165C142.51 184.634 143.925 183.16 144.166 181.247C144.567 181.591 144.979 181.832 145.377 182.21C147.369 184.084 149.271 186.09 151.151 188.129C150.647 188.963 150.261 190.02 149.896 190.998C149.252 192.746 148.853 194.45 148.7 196.393C148.595 197.785 149.938 198.659 150.462 197.295C151.051 195.768 151.641 194.23 152.273 192.746C152.615 191.958 153.001 191.23 153.281 190.466C155.199 192.6 157.103 194.734 159.025 196.817C158.567 197.735 158.197 198.782 157.821 199.712C156.964 201.855 156.431 204.109 156.207 206.521C156.067 208.06 157.475 208.356 157.876 207.011C158.491 204.965 159.356 203.205 160.251 201.407C160.597 200.711 160.986 199.996 161.329 199.248C162.296 200.243 163.281 201.194 164.276 202.122C163.828 203.1 163.513 204.272 163.157 205.378C162.383 207.758 161.736 210.165 161.132 212.651C160.951 213.412 161.576 214.23 162 213.547C163.142 211.733 164.192 209.838 165.144 207.79C165.637 206.718 166.309 205.539 166.747 204.3C168.278 205.583 169.861 206.778 171.512 207.839C171.28 209.052 171.145 210.337 170.919 211.534C170.422 214.144 169.92 216.731 169.269 219.283C169.07 220.088 169.775 220.653 170.124 219.922C171.094 217.887 171.912 215.765 172.666 213.534C173.099 212.261 173.583 210.726 173.885 209.193C174.788 209.652 175.695 210.105 176.634 210.445C176.135 212.696 175.859 222.484 177.3 224.333C177.623 224.751 178.155 224.145 178.081 223.544C177.642 219.83 179.828 215.329 179.935 211.456C182.508 212.103 188.443 213.235 188.851 213.342C188.534 214.63 186.093 222.091 185.849 224.946C185.752 226.038 186.776 226.309 187.056 225.296C187.995 221.876 190.403 218.022 191.45 214.131C193.523 215.016 195.334 216.35 196.995 217.956C196.33 219.344 195.933 221.117 195.436 222.622C194.557 225.278 193.748 227.967 193.003 230.697C192.797 231.45 193.477 231.949 193.793 231.297C194.824 229.157 195.858 227.028 196.844 224.844C197.494 223.409 198.373 221.714 198.862 219.976C200.909 222.451 202.677 225.435 204.233 228.855C201.035 232.022 199.402 238.696 198.818 243.856C198.702 244.911 199.775 245.221 200.003 244.203C200.598 241.589 201.752 239.037 202.781 236.74C203.592 234.941 204.578 233.336 205.408 231.584C206.483 234.237 209.095 242.1 209.434 243.133C208.602 244.329 208.012 246.29 207.312 247.542C206.26 249.42 205.199 251.217 204.212 253.169C203.507 254.583 204.839 255.85 205.584 254.596C206.775 252.601 208.232 250.969 209.421 248.94C209.823 248.254 210.247 247.489 210.608 246.69C211.677 249.805 212.764 252.696 213.93 255.402C213.309 256.649 212.837 258.081 212.227 259.334C211.315 261.212 210.103 262.765 208.829 264.042C208.102 264.76 208.551 266.519 209.371 265.866C211.227 264.363 214.031 261.489 215.187 258.138C216.211 260.283 217.305 262.313 218.508 264.201C217.56 264.606 216.906 266.093 216.25 267.17C215.276 268.771 214.313 270.384 213.281 271.899C212.81 272.591 213.37 273.613 213.89 273.011C214.95 271.759 215.983 270.463 217.01 269.156C217.813 268.143 219.049 267.147 219.425 265.638C220.587 267.331 221.883 268.902 223.267 270.416C222.561 271.414 221.965 272.686 221.446 273.796C220.537 275.732 219.682 277.648 218.7 279.503C218.22 280.402 218.916 281.325 219.501 280.966C220.831 280.174 221.876 278.243 222.746 276.576C223.469 275.169 224.445 273.881 225.207 272.472C226.451 273.651 229.335 275.92 229.389 275.964C227.973 278.56 226.86 281.845 226.038 284.499C225.699 285.582 226.766 286.366 227.199 285.382C228.095 283.37 231.081 278.226 231.544 277.487C234.222 279.311 236.834 280.899 239.32 282.742C238.122 284.407 237.099 286.64 236.239 288.475C234.981 291.141 234.204 294.192 233.691 297.299C233.515 298.332 234.545 298.517 234.809 297.623C235.705 294.594 236.967 292.021 238.383 289.477C239.356 287.731 240.587 286.278 241.518 284.5C242.668 285.475 243.783 286.558 244.865 287.782C243.992 289.061 240.333 298.526 239.102 301.628C238.941 302.032 239.183 302.71 239.515 302.383C241.104 300.808 246.41 290.715 246.763 290.123C247.49 291.129 249.223 294.134 249.404 294.484C246.88 298.323 245.405 303.985 243.83 308.622C243.545 309.444 244.349 309.959 244.694 309.28C246.633 305.47 249.203 301.86 250.919 297.698C252.509 301.513 253.756 305.827 254.818 310.284C253.721 311.331 252.847 313.304 252.113 314.75C250.738 317.454 249.597 320.406 248.254 323.147C247.929 323.809 248.481 324.495 248.89 324.018C250.527 322.111 251.888 319.823 253.336 317.588C254.021 316.532 254.938 315.453 255.734 314.283C256.608 318.348 258.622 328.374 258.846 329.468C256.818 329.314 254.294 332.714 253.149 334.811C252.813 335.42 253.315 336.27 253.755 335.911C254.723 335.113 258.647 333.021 259.426 332.215C261.458 341.768 263.764 351.019 267.297 359.098C263.201 355.196 259.239 350.929 255.444 346.136C247.014 335.462 235.833 330.141 226.507 321.427C218.98 314.398 212.254 306.327 204.182 300.516C193.543 292.861 182.446 290.699 173.834 277.732C168.065 269.036 163.533 258.581 156.765 251.485C150.942 245.371 142.193 244.99 135.408 242.774C123.972 239.013 114.133 225.267 105.6 214.277C105.008 213.519 104.113 215.028 104.63 215.878C111.22 226.784 118.729 235.674 127.382 242.677C134.598 248.518 142.858 249.144 150.619 252.819C160.211 257.361 166.343 274.096 173.158 284.355C179.777 294.321 188.565 297.203 197.177 301.929C207.231 307.439 215.95 316.36 224.435 325.801C234.351 336.83 246.456 342.061 256.162 353.83C259.346 357.69 262.729 360.981 266.197 364.024C259.337 362.773 252.406 363.484 245.171 364.732C230.199 367.321 217.657 366.735 203.505 360.522L203.504 360.519ZM314.758 440.825C316.068 438.463 317.842 437.66 319.782 437.737C319.701 437.812 316.136 441.118 314.758 440.825ZM321.895 433.779C317.737 432.787 313.767 433.684 312.57 439.38C307.147 432.268 306.052 404.129 305.998 396.293C305.982 393.995 306.018 391.702 306.066 389.398C309.615 405.236 316.243 419.754 321.895 433.779ZM343.447 401.751C343.287 403.208 343.063 404.665 342.785 406.078C339.524 403.78 336.322 401.273 333.116 398.759C336.519 400.114 339.956 401.182 343.447 401.751ZM177.064 30.0336C184.181 32.0619 190.091 34.1804 195.532 37.6445C195.261 39.2138 193.954 46.7924 193.622 49.0396C193.522 49.6853 194.172 49.9909 194.401 49.4362C195.595 46.4818 197.011 42.7698 197.745 39.2009C198.919 40.0624 200.082 40.9807 201.221 41.9956C198.69 43.5667 197.156 50.4104 196.533 53.7625C196.344 54.8235 197.289 55.8058 197.716 54.6594C198.477 52.6311 199.268 50.6167 200.177 48.7331C201.034 46.9727 202.442 45.5852 202.84 43.5052C204.331 44.9642 205.821 46.5679 207.311 48.3796C206.538 49.6897 206.209 51.5148 205.876 53.195C205.403 55.5987 205.096 58.1138 204.411 60.4256C204.184 61.2002 204.889 61.672 205.223 61.0331C206.098 59.3319 206.875 57.5883 207.557 55.6984C208.056 54.3147 208.876 52.6439 209.329 51.0195C210.171 52.1614 213.819 57.5323 214.787 59.0427C212.642 61.7258 211.898 67.9141 211.802 71.3482C211.763 72.9126 213.143 72.9805 213.371 71.4715C213.724 69.1566 215.953 62.6048 216.413 61.5708C217.578 63.4206 218.704 65.2733 219.839 67.1208C219.203 68.754 218.788 70.6129 218.287 72.3261C217.563 74.8432 217.012 77.4201 216.663 80.0822C216.527 81.1301 217.564 81.6627 217.933 80.7258C219.102 77.7982 221.077 74.3498 222.121 70.8342C223.154 72.535 224.195 74.2247 225.233 75.8968C224.109 76.7109 223.289 78.6188 222.682 80.2312C221.749 82.703 221.507 85.3099 221.677 88.0128C221.782 89.6638 223.461 89.3966 223.585 87.7752C223.739 85.624 224.289 83.7701 225.142 81.9803C225.727 80.748 226.557 79.9108 227.02 78.6979C228.205 80.5725 229.406 82.4367 230.627 84.2563C229.646 85.1741 228.808 86.7742 228.268 88.1141C227.165 90.827 226.654 93.9046 226.209 96.9236C226.02 98.216 227.438 98.6224 227.686 97.3462C228.148 94.9359 228.834 92.6701 229.801 90.5771C230.448 89.1762 231.62 88.0941 232.397 86.7843C233.866 88.901 235.387 90.9292 236.939 92.9078C236.292 94.2567 235.82 95.9318 235.372 97.3483C234.599 99.8037 234.062 102.405 233.538 104.984C233.291 106.196 234.37 106.773 234.724 105.592C235.438 103.207 236.313 100.974 237.287 98.7944C237.779 97.6935 238.406 96.557 238.919 95.3769C240.691 97.4942 242.543 99.508 244.483 101.407C244.097 102.088 243.739 102.789 243.465 103.433C242.538 105.592 242.166 108.207 242.086 110.67C242.046 111.853 243.092 111.889 243.264 110.763C243.584 108.659 244.196 106.845 245.026 105.059C245.377 104.294 245.859 103.702 246.331 103.097C247.685 104.319 249.059 105.521 250.506 106.617C248.754 108.689 248.025 112.86 247.975 115.899C247.955 116.973 248.869 117.004 249.044 115.983C249.33 114.27 249.929 112.663 250.675 111.269C251.3 110.104 252.09 109.304 252.829 108.379C255.303 110.193 257.614 111.901 259.755 113.614C256.877 115.117 255.901 121.611 255.378 125.428C255.243 126.424 256.288 126.709 256.496 125.753C256.965 123.633 257.581 121.674 258.413 119.802C259.231 117.969 260.468 116.874 261.396 115.224C261.436 115.151 265.264 118.564 266.972 120.63C266.018 121.787 265.218 123.448 264.561 124.866C263.201 127.824 262.399 131.423 262.149 134.902C262.024 136.639 263.694 136.73 263.895 135.039C264.268 131.968 265.188 129.363 266.383 126.779C267.017 125.406 268.029 124.236 268.777 122.906C270.171 124.872 271.454 127.189 272.682 129.778C271.505 131.212 270.475 133.341 269.708 134.872C268.225 137.844 267.325 141.244 267.206 144.843C267.179 145.657 268.011 146.011 268.172 145.122C268.741 141.968 270.217 139.331 271.622 136.867C272.351 135.582 273.345 134.498 274.231 133.295C274.853 134.865 277.404 143.742 277.329 143.788C273.889 145.554 272.482 151.696 270.424 155.779C269.73 157.148 271.032 158.395 271.753 157.174C272.882 155.279 273.833 153.196 274.851 151.176C275.83 149.223 277.006 147.609 278.094 145.809C279.096 149.769 280.645 157.722 280.514 157.741C279.159 157.987 277.935 160.499 277.015 161.948C275.94 163.64 275.084 165.522 274.302 167.525C273.833 168.715 274.857 169.853 275.41 168.694C276.296 166.814 277.449 165.297 278.582 163.783C279.412 162.663 280.691 161.56 281.222 160.017C281.995 164.052 282.727 168.089 283.473 172.127C282.312 173.03 281.373 174.767 280.361 175.983C278.756 177.91 276.995 179.513 275.293 181.219C274.268 182.226 274.921 184.747 276.043 183.776C277.829 182.245 279.635 180.791 281.35 179.063C282.263 178.14 283.372 177.076 284.163 175.727C284.5 177.471 284.811 179.236 285.169 180.954C285.354 181.824 282.859 184.428 281.938 185.356C280.931 186.364 279.935 187.431 279.074 188.711C278.588 189.448 279.04 190.438 279.649 190.104C281.625 188.999 284.203 187.651 285.674 185.221C285.814 184.984 286.809 189.035 287.241 191.296C286.222 192.032 285.239 193.169 284.209 193.794C282.552 194.798 280.901 195.564 279.298 196.838C278.539 197.444 279.031 199.038 279.806 198.573C281.703 197.415 285.75 197.357 287.948 195.123C288.482 198.15 289.243 204.127 289.194 204.128C287.85 204.225 286.816 205.619 285.543 206.259C284.033 207.026 282.462 207.076 280.919 207.435C280.195 207.592 280.04 209.379 280.746 209.642C282.879 210.435 287.984 210.807 289.578 207.143C289.95 210.978 290.183 214.814 290.1 218.712C289.413 218.693 286.175 219.763 285.198 219.814C283.67 219.89 282.18 220.01 280.699 220.791C279.976 221.173 280.115 222.642 280.877 222.522C283.226 222.163 287.457 224.641 289.859 222.412C289.658 225.595 289.267 228.833 288.652 232.133C287.396 231.838 286.08 232.053 284.794 231.9C282.937 231.673 281.131 231.097 279.285 230.842C278.236 230.702 277.814 233.179 278.813 233.616C281.196 234.659 285.082 236.804 287.916 235.719C287.391 237.969 286.824 240.22 286.07 242.55C282.154 254.707 279.702 264.816 279.612 277.192C273.027 260.144 261.431 248.729 250.543 238.012C241.807 229.413 233.735 221.034 227.115 208.623C220.387 196 214.614 184.765 205.843 175.22C193.594 161.879 187.765 148.233 183.819 125.921C181.213 111.193 175.699 101.146 170.039 89.2033C159.341 66.6259 164.404 36.7323 152.814 16.3532C160.833 21.3211 168.385 27.5474 177.064 30.0336Z" fill="#eeecd1ff" fill-opacity="0.71"/>
<path d="M202.587 103.362C211.872 134.574 232.903 151.722 242.38 182.849C251.506 212.799 272.168 229.402 278.037 262.399C278.248 263.573 279.454 263.251 279.331 261.969C276.356 230.686 257.494 213.64 247.351 188.67C241.371 173.943 237.305 160.309 229.42 147.421C220.402 132.681 211.174 119.781 205.01 101.522C204.256 99.3167 201.901 101.058 202.587 103.362Z" fill="#eeecd6ff" fill-opacity="0.71"/>
<path d="M83.2893 179.622C82.6626 178.346 82.1484 176.796 81.8659 175.236C81.5589 173.505 81.8159 171.726 80.8551 170.512C80.3838 169.908 79.6559 170.307 79.2871 171.001C78.3556 172.739 79.1054 175.291 79.5878 177.006C80.1301 178.923 80.9766 180.435 82.128 181.538C82.9125 182.299 83.8303 180.734 83.2893 179.622Z" fill="#ecead0ff" fill-opacity="0.71"/>
</svg>
