<svg width="320" height="350" viewBox="0 0 320 350" fill="none" xmlns="http://www.w3.org/2000/svg">
<path d="M213.267 287.68C190.094 275.144 185.91 239.481 166.955 219.777C154.579 206.907 145.949 195.553 136.008 178.382C130.414 168.727 123.418 161.015 115.778 156.236C103.783 148.737 92.4667 143.073 81.1536 131.922C72.6373 123.526 64.6045 116.402 55.3357 111.345C35.7768 100.659 15.1983 94.738 -1.57346 72.16C-6.32626 61.6709 -12.8246 53.0996 -20.2365 45.9257C-28.7448 37.6832 -36.5138 31.7427 -42.9268 19.2868C-47.0051 11.3752 -49.7697 2.13533 -52.4795 -6.84924C-46.9125 -6.47644 -24.1238 -2.5274 -23.8126 -2.30153C1.40029 16.4625 12.3629 63.8051 40.7854 71.5465C49.2819 73.8621 56.9811 74.8655 65.2017 82.2597C72.6054 88.9214 78.7178 100.156 85.6091 108.106C96.1426 120.26 104.91 119.674 115.561 118.041C129.184 115.942 142.773 126.55 156.523 133.478C169.641 140.084 179.633 136.987 191.05 132.55C205.2 127.031 221.001 125.615 234.304 117.638C247.35 109.808 252.421 92.9799 267.614 91.2648C268.938 91.6023 270.284 91.856 271.658 91.9941C273.483 92.1887 273.083 87.976 271.256 87.776C257.94 86.3837 212.235 48.6548 201.167 38.8045C175.571 16.0394 146.682 4.86867 119.686 -5.50465C94.4563 -15.189 68.9028 -22.7278 43.9781 -25.4527C32.8433 -26.6703 22.6758 -25.5101 12.8962 -20.7496C1.66161 -15.2744 -8.09533 -8.1646 -20.325 -6.2613C-20.8861 -6.44862 -44.168 -11.3987 -54.0856 -12.1003C-54.5333 -13.5441 -54.9835 -14.9694 -55.4461 -16.3852C-59.765 -29.5277 -84.4178 -88.9932 -90.0838 -58.0147C-90.3068 -56.7999 -89.6997 -55.6986 -88.9524 -55.1616C-89.8238 -55.1027 -90.7236 -55.1197 -91.6376 -55.2165C-92.7832 -55.3456 -93.4118 -53.1411 -92.28 -51.7649C-81.7076 -38.9159 -71.5586 -26.1531 -61.5709 -12.5826C-64.602 -12.77 -72.8398 -13.5304 -73.7216 -13.5941C-82.2616 -16.9799 -90.8268 -20.568 -99.3609 -22.9812C-100.174 -23.2071 -100.721 -22.1131 -100.625 -21.0155C-100.306 -17.5279 -99.6683 -14.492 -98.7564 -11.0468C-98.4308 -9.81473 -97.5268 -9.06364 -96.7625 -9.22471C-88.2729 -11.0918 -61.8662 -7.72558 -57.7534 -7.33773C-56.835 -6.06448 -54.8794 -3.48472 -54.8175 -3.42392C-52.1293 5.05313 -49.3877 13.4911 -45.7086 21.5311C-41.3107 31.1368 -34.891 38.1635 -28.414 44.2111C-22.3193 49.8975 -16.6004 54.5271 -11.107 61.9507C-7.68942 66.5757 -2.28505 78.6742 -2.06528 79.2293C5.51963 98.5561 2.87704 114.638 6.74604 133.814C9.90275 149.475 17.7079 163.212 25.5989 175.467C40.2386 198.204 52.0586 226.625 72.5828 236.407C83.8368 241.777 94.5725 241.782 105.986 249.159C118.024 256.956 129.384 268.802 141.178 277.789C151.328 285.529 160.35 288.908 170.548 288.445C176.413 288.181 181.946 286.77 187.923 287.042C196.273 287.425 204.922 291.212 213.301 291.467C214.74 291.522 214.822 288.522 213.266 287.68L213.267 287.68ZM44.384 -21.0809C71.8222 -18.8874 100.626 -8.8121 128.391 2.13456C156.285 13.135 183.707 26.9301 209.729 51.1217C220.378 61.0326 231.656 66.5204 242.468 75.6999C248.682 80.9652 254.522 85.6391 260.624 88.6452C254.984 90.0379 250.217 93.7627 245.447 98.9408C244.846 98.1665 240.941 93.9677 239.398 92.9788C238.76 92.5673 238.408 93.8055 238.939 94.4912C240.202 96.1127 243.143 100.653 243.445 101.138C241.866 102.933 240.307 104.728 238.72 106.441C237.203 103.156 234.581 101.165 232.492 98.8722C232.016 98.3449 231.578 99.1759 231.897 99.8301C233.336 102.814 235.286 105.581 237.129 108.066C235.57 109.646 233.958 111.151 232.218 112.469L232.212 112.447C230.097 108.883 227.607 106.102 224.785 104.208C224.48 104.004 224.305 104.608 224.565 104.938C226.649 107.56 228.423 110.662 229.947 113.969C228.82 114.654 227.652 115.273 226.444 115.812C226.535 115.608 223.664 107.844 221.447 105.677C221.051 105.289 220.654 105.911 220.945 106.478C221.671 107.905 222.356 109.374 223.015 110.856C223.687 112.375 225.38 116.121 225.671 116.191C221.562 117.906 217.085 118.963 212.694 119.948C212.707 119.789 209.892 112.602 207.485 111.742C207.026 111.581 206.611 112.358 207.116 112.961C208.861 115.031 210.923 120.224 211.003 120.339C208.704 120.854 204.173 122.045 204.11 122.063C202.972 119.45 201.301 117.373 200.011 114.904C199.645 114.203 198.864 114.482 199.143 115.35C199.948 117.796 200.627 120.474 201.647 122.862C199.099 123.684 196.581 124.558 194.091 125.466C193.458 122.668 192.126 119.619 190.785 117.313C190.188 116.287 189.155 116.641 189.489 117.984C190.168 120.704 190.634 123.733 191.53 126.387C189.366 127.164 187.198 127.883 185.033 128.54C185.028 127.681 184.942 126.772 184.801 125.896C184.421 123.525 183.4 121.407 182.186 119.539C181.776 118.91 181.065 119.415 181.35 120.21C181.99 122.014 182.285 123.685 182.416 125.544C182.511 126.929 182.183 128.035 182.274 129.337C180.761 129.727 179.229 130.008 177.691 130.267C177.847 128.945 177.693 127.307 177.62 126.072C177.459 123.563 176.749 121.229 175.509 119.099C175.088 118.371 174.232 118.599 174.546 119.595C175.321 122.044 175.292 124.341 175.097 126.636C174.972 128.099 174.717 129.323 175.129 130.651C172.66 130.902 170.116 130.826 167.531 130.529C167.728 130.505 168.284 126.969 167.881 125.029C167.441 122.907 167.015 120.824 166.338 118.749C166.003 117.717 164.766 117.254 164.768 118.533C164.775 120.504 164.932 122.475 165.134 124.483C165.319 126.321 166.896 130.361 167.106 130.466C165.141 130.214 163.14 129.762 161.093 129.139C161.706 127.943 161.74 125.871 161.726 124.315C161.709 121.808 161.158 119.227 160.183 116.834C159.802 115.909 158.911 116.231 159.013 117.153C159.229 119.121 159.172 120.942 158.984 122.769C158.812 124.46 158.024 126.313 158.447 128.194C157.968 128.002 157.513 127.912 157.024 127.686C154.587 126.577 152.187 125.315 149.796 124.014C149.974 123.062 149.969 121.94 149.972 120.899C149.969 119.041 149.759 117.305 149.245 115.425C148.873 114.08 147.36 113.698 147.343 115.155C147.321 116.788 147.302 118.431 147.228 120.035C147.182 120.891 147.075 121.703 147.079 122.515C144.621 121.137 142.177 119.755 139.732 118.426C139.84 117.411 139.824 116.303 139.853 115.303C139.911 113.003 139.638 110.705 139.031 108.36C138.641 106.865 137.264 107.05 137.352 108.449C137.48 110.577 137.286 112.519 137.078 114.507C136.998 115.277 136.885 116.079 136.825 116.896C135.613 116.277 134.4 115.706 133.185 115.159C133.263 114.092 133.156 112.884 133.107 111.725C133.01 109.229 132.789 106.749 132.502 104.209C132.411 103.433 131.569 102.868 131.413 103.652C130.986 105.736 130.67 107.866 130.494 110.109C130.406 111.28 130.192 112.612 130.211 113.922C128.39 113.218 126.552 112.615 124.698 112.16C124.501 110.94 124.192 109.686 123.995 108.484C123.569 105.863 123.156 103.262 122.89 100.644C122.8 99.8199 121.971 99.5207 121.9 100.323C121.703 102.559 121.673 104.827 121.738 107.177C121.772 108.518 121.849 110.123 122.089 111.666C121.116 111.531 120.14 111.403 119.174 111.393C118.871 109.108 115.834 99.7998 113.906 98.5337C113.472 98.2458 113.192 98.9918 113.461 99.534C115.107 102.886 114.635 107.845 115.838 111.528C113.286 111.765 107.52 112.654 107.114 112.688C106.969 111.37 106.679 103.541 105.94 100.772C105.662 99.7119 104.642 99.7936 104.728 100.84C105.024 104.37 104.134 108.792 104.49 112.801C102.311 112.65 100.219 111.99 98.1728 111.026C98.3106 109.499 98.0751 107.699 98.0204 106.117C97.9261 103.328 97.7573 100.528 97.5162 97.7126C97.451 96.9354 96.6662 96.6897 96.5982 97.4077C96.381 99.7627 96.1572 102.107 95.9964 104.489C95.8883 106.055 95.6599 107.94 95.8 109.737C93.1113 108.081 90.504 105.853 87.9434 103.146C89.782 99.1102 89.023 92.2876 87.8192 87.2364C87.571 86.2043 86.4926 86.266 86.6278 87.2991C86.9655 89.9567 86.775 92.7407 86.613 95.242C86.4807 97.2031 86.1257 99.0398 85.9601 100.962C84.0936 98.8183 79.0824 92.2738 78.4276 91.4126C78.7813 90.0127 78.6576 87.9722 78.8727 86.5624C79.1969 84.4472 79.5565 82.4059 79.7958 80.2423C79.9612 78.6786 78.3272 77.9239 78.0716 79.3508C77.6613 81.6211 76.8871 83.6381 76.4895 85.9407C76.3548 86.7189 76.2273 87.5786 76.1672 88.4499C74.1508 85.8688 72.1938 83.5046 70.2272 81.3403C70.3715 79.9618 70.319 78.4577 70.4512 77.0765C70.6485 75.0079 71.2271 73.146 71.9544 71.5243C72.3726 70.6089 71.3747 69.1003 70.8499 69.9851C69.6704 72.0114 68.0911 75.6415 68.1667 79.1777C66.5167 77.4947 64.8426 75.9439 63.1165 74.5626C63.8407 73.8684 63.9351 72.2524 64.1691 71.0227C64.5152 69.1945 64.8477 67.358 65.2748 65.5912C65.4697 64.7846 64.6188 64.0071 64.3483 64.7445C63.8071 66.2735 63.3046 67.8336 62.8122 69.403C62.4239 70.6211 61.6361 71.9663 61.8017 73.5112C60.1786 72.2991 58.4745 71.2467 56.7098 70.2766C57.0163 69.1048 57.1299 67.7107 57.2279 66.4943C57.4029 64.372 57.5348 62.2856 57.8035 60.2154C57.9366 59.2106 56.9951 58.5712 56.585 59.1019C55.6435 60.2859 55.3434 62.4483 55.1145 64.3043C54.93 65.8672 54.4772 67.402 54.2591 68.9799C52.7342 68.279 49.3544 67.0929 49.2911 67.0684C49.7038 64.1579 49.6112 60.6979 49.4657 57.9281C49.4091 56.7958 48.1778 56.409 48.1152 57.4784C47.9775 59.668 46.9954 65.4963 46.8232 66.3444C43.7808 65.5085 40.8766 64.8739 38.0009 63.9564C38.5295 61.9946 38.7083 59.5545 38.872 57.5429C39.1183 54.618 38.7991 51.489 38.2212 48.395C38.0338 47.3642 37.0365 47.5293 37.0976 48.4571C37.3014 51.6057 37.0202 54.4444 36.5903 57.3059C36.2928 59.2704 35.6637 61.0443 35.416 63.0251C34.0447 62.4854 32.6691 61.8334 31.2766 61.0364C31.6391 59.5444 31.7806 49.4267 31.8567 46.1001C31.8666 45.667 31.4192 45.1078 31.2273 45.525C30.3145 47.532 28.8893 58.7839 28.7674 59.457C27.7695 58.7495 25.1877 56.4903 24.9063 56.2205C25.9074 51.774 25.3439 45.9561 25.2166 41.0709C25.1984 40.2031 24.2961 39.9835 24.2111 40.7361C23.7313 44.9623 22.6111 49.2081 22.4515 53.6934C19.7276 50.6242 17.1464 46.9721 14.6858 43.1255C15.3295 41.7777 15.4602 39.6317 15.6411 38.0279C15.9807 35.0298 16.0241 31.8734 16.323 28.8504C16.395 28.1194 15.6639 27.6557 15.4534 28.2394C14.6077 30.5749 14.141 33.1774 13.5778 35.7585C13.311 36.9792 12.8406 38.2974 12.511 39.6609C10.3531 36.1202 5.15791 27.3422 4.58682 26.3863C6.47942 25.8628 7.62776 21.8304 7.96296 19.4789C8.06273 18.7941 7.32269 18.1595 7.04307 18.6425C6.43287 19.712 3.57455 22.9745 3.13854 23.9905C-1.91435 15.6638 -7.11405 7.7117 -13.0348 1.26713C-8.00641 3.5926 -2.97762 6.30636 2.07644 9.56936C13.3117 16.8451 25.2467 18.1727 36.6366 23.3074C45.8285 27.4475 54.6434 32.8324 63.9214 35.6465C76.1482 39.3513 86.9453 37.732 99.1166 47.1066C107.272 53.3952 114.897 61.7484 123.422 66.2013C130.76 70.0412 138.829 67.5182 145.73 67.3705C157.373 67.1461 170.919 76.8501 182.354 84.3885C183.146 84.9073 183.451 83.1919 182.697 82.5612C173.053 74.4617 163.252 68.5633 153.047 64.8191C144.537 61.6942 136.83 63.8256 128.553 62.9207C118.321 61.8028 107.135 48.0634 97.505 40.6468C88.1512 33.4424 79.2073 33.6223 69.8041 32.0086C58.8293 30.1316 47.9202 24.6019 37.0486 18.5056C24.3453 11.3861 11.6023 10.4469 -1.15976 2.5606C-5.34534 -0.0251674 -9.52136 -2.00981 -13.6904 -3.73328C-7.04447 -4.8153 -0.993322 -7.76721 5.15378 -11.3253C17.8718 -18.6947 29.4519 -22.2737 44.3819 -21.0836L44.384 -21.0809ZM-83.5568 -60.0623C-83.9526 -57.4074 -85.293 -56.0665 -87.0795 -55.5002C-87.0305 -55.5973 -84.9057 -59.8848 -83.5568 -60.0623ZM-87.6678 -51.0771C-83.5607 -51.5127 -80.259 -53.6649 -81.0856 -59.4228C-73.7752 -54.5113 -63.3308 -28.3736 -60.6498 -21.0125C-59.8633 -18.8543 -59.1259 -16.6826 -58.3961 -14.4969C-66.9363 -28.2429 -77.8273 -39.7313 -87.6678 -51.0771ZM-96.47 -13.8188C-96.8142 -15.2431 -97.1001 -16.6894 -97.3227 -18.111C-93.5915 -17.021 -89.8427 -15.7148 -86.0891 -14.4037C-89.6326 -14.5586 -93.1106 -14.4324 -96.47 -13.8188ZM179.378 281.425C172.237 281.859 166.163 281.81 160.061 280.34C159.78 278.773 158.421 271.206 157.967 268.981C157.841 268.34 157.148 268.266 157.127 268.864C157.036 272.039 156.997 276.001 157.529 279.604C156.174 279.179 154.811 278.697 153.436 278.117C155.206 275.804 154.299 268.854 153.738 265.492C153.554 264.431 152.366 263.817 152.364 265.037C152.354 267.198 152.313 269.355 152.121 271.428C151.934 273.369 151.123 275.139 151.46 277.228C149.617 276.345 147.726 275.326 145.765 274.111C146.027 272.622 145.712 270.795 145.45 269.104C145.072 266.684 144.506 264.215 144.351 261.812C144.297 261.008 143.499 260.796 143.411 261.507C143.187 263.398 143.068 265.296 143.083 267.3C143.096 268.767 142.912 270.611 143.047 272.29C141.899 271.492 136.785 267.635 135.399 266.532C136.445 263.299 135.041 257.226 133.975 253.961C133.485 252.475 132.21 252.865 132.509 254.361C132.967 256.657 133.144 263.561 133.074 264.687C131.396 263.328 129.751 261.955 128.101 260.589C128.129 258.841 127.881 256.954 127.761 255.175C127.573 252.567 127.207 249.959 126.63 247.337C126.401 246.305 125.281 246.146 125.261 247.149C125.183 250.291 124.549 254.189 124.782 257.843C123.274 256.582 121.762 255.333 120.258 254.101C121.004 252.964 121.108 250.897 121.117 249.179C121.133 246.544 120.478 244.009 119.416 241.52C118.766 240 117.332 240.805 117.764 242.372C118.347 244.449 118.47 246.376 118.298 248.342C118.18 249.695 117.708 250.757 117.696 252.052C115.99 250.677 114.274 249.317 112.555 248.005C113.137 246.818 113.36 245.035 113.4 243.595C113.49 240.678 112.92 237.611 112.31 234.622C112.047 233.342 110.624 233.427 110.827 234.71C111.218 237.132 111.357 239.491 111.182 241.781C111.065 243.313 110.365 244.718 110.1 246.208C108.056 244.698 105.993 243.289 103.92 241.937C104.055 240.454 103.921 238.721 103.852 237.239C103.728 234.673 103.342 232.046 102.952 229.445C102.768 228.222 101.595 228.034 101.671 229.263C101.824 231.744 101.779 234.135 101.628 236.509C101.551 237.707 101.364 238.984 101.295 240.264C98.9755 238.854 96.6183 237.567 94.2192 236.418C94.3413 235.649 94.4308 234.872 94.4632 234.175C94.579 231.836 94.0385 229.252 93.2837 226.906C92.9227 225.779 91.9615 226.09 92.1837 227.207C92.5994 229.293 92.6534 231.203 92.5005 233.158C92.4383 233.994 92.1999 234.711 91.9751 235.436C90.3357 234.73 88.6848 234.052 87.003 233.495C87.8979 230.967 87.1586 226.799 86.1829 223.922C85.8403 222.903 85.0005 223.175 85.1849 224.195C85.5006 225.902 85.4963 227.613 85.2877 229.17C85.1116 230.474 84.6635 231.487 84.3036 232.602C81.4495 231.708 78.7778 230.86 76.2598 229.953C78.3668 227.589 77.0712 221.152 76.2641 217.386C76.0522 216.404 75.008 216.48 75.1405 217.448C75.4267 219.6 75.5257 221.647 75.3992 223.684C75.2725 225.679 74.5176 227.117 74.2294 228.978C74.2175 229.059 69.597 227.106 67.3531 225.723C67.8303 224.319 67.999 222.491 68.1187 220.94C68.3599 217.706 67.8785 214.053 66.9373 210.694C66.4674 209.017 64.9213 209.482 65.3067 211.14C65.999 214.155 66.039 216.912 65.8226 219.739C65.7083 221.241 65.1828 222.676 64.9505 224.174C63.025 222.781 61.0826 221.023 59.0988 218.989C59.6847 217.251 59.9049 214.907 60.0875 213.213C60.435 209.925 60.1092 206.428 59.009 202.998C58.7594 202.224 57.8857 202.164 58.0386 203.054C58.581 206.212 58.1278 209.181 57.6801 211.964C57.4496 213.414 56.912 214.762 56.5122 216.187C55.4199 214.914 50.1234 207.395 50.1764 207.326C52.7053 204.531 51.9186 198.283 52.4152 193.76C52.5857 192.243 50.9844 191.497 50.7406 192.885C50.3522 195.041 50.1886 197.316 49.943 199.553C49.7108 201.715 49.186 203.622 48.8033 205.675C46.5634 202.277 42.4869 195.297 42.5988 195.236C43.7465 194.558 44.0129 191.789 44.3614 190.122C44.7695 188.175 44.914 186.121 44.9509 183.976C44.9764 182.702 43.6649 181.967 43.5525 183.241C43.3798 185.303 42.8433 187.111 42.3228 188.91C41.9459 190.238 41.1553 191.698 41.1925 193.326C39.1355 189.781 37.1157 186.22 35.0818 182.664C35.8323 181.43 36.1012 179.486 36.6109 178.007C37.4204 175.664 38.4807 173.574 39.4519 171.408C40.0444 170.122 38.6043 167.963 37.9128 169.246C36.8061 171.276 35.6551 173.241 34.6794 175.433C34.1609 176.603 33.5112 177.97 33.2463 179.501C32.3553 177.969 31.4794 176.409 30.5784 174.91C30.1179 174.151 31.5078 170.878 32.0318 169.7C32.6068 168.419 33.1526 167.086 33.5045 165.597C33.6978 164.743 32.9549 163.96 32.5141 164.475C31.0922 166.167 29.205 168.285 28.6865 171.057C28.6395 171.327 26.3752 167.84 25.2239 165.853C25.902 164.825 26.4119 163.43 27.1365 162.502C28.3038 161.011 29.5439 159.746 30.5709 158.018C31.0567 157.198 30.0748 155.858 29.5279 156.552C28.1954 158.267 24.5412 159.655 23.2975 162.482C21.7958 159.808 19.0978 154.43 19.142 154.412C20.3292 153.878 20.7988 152.225 21.7392 151.203C22.8524 149.984 24.2616 149.419 25.541 148.573C26.1454 148.187 25.6864 146.453 24.957 146.437C22.7546 146.394 17.997 147.725 17.7808 151.699C16.1545 148.211 14.6552 144.675 13.4212 140.977C14.0517 140.769 16.6306 138.695 17.5003 138.326C18.8612 137.75 20.1729 137.146 21.2549 135.924C21.7824 135.325 21.1637 133.988 20.5115 134.352C18.5004 135.463 13.8282 134.523 12.3976 137.413C11.5108 134.35 10.778 131.173 10.2277 127.862C11.4672 127.726 12.5889 127.091 13.8079 126.811C15.5686 126.413 17.4011 126.361 19.1624 125.993C20.1616 125.779 19.7123 123.308 18.6587 123.225C16.1459 123.027 11.8986 122.288 9.69119 124.242C9.41218 121.951 9.1703 119.644 9.07284 117.202C8.54321 104.464 7.37355 94.1372 3.29859 82.4529C15.0004 96.3382 29.3587 103.269 42.8388 109.775C53.6555 114.995 63.7957 120.226 73.972 129.734C84.3175 139.405 93.3301 148.084 104.497 154.183C120.093 162.712 129.967 173.642 141.041 193.354C148.354 206.365 156.733 214.01 165.881 223.392C183.172 241.13 188.617 270.948 205.98 286.321C197.035 284.284 188.089 280.908 179.378 281.425Z" fill="#E7EAF5" fill-opacity="0.71"/>
<path d="M131.586 220.779C112.677 194.445 87.8302 185.224 68.7748 159.032C50.4331 133.835 26.1053 125.005 9.69627 95.8645C9.11096 94.8289 8.12413 95.5292 8.66601 96.6962C21.8733 125.175 44.7168 135.015 62.3083 155.188C72.6815 167.087 80.9512 178.587 92.4355 188.126C105.571 199.037 118.278 208.146 130.005 223.31C131.43 225.138 132.982 222.722 131.586 220.779Z" fill="#E7EAF5" fill-opacity="0.71"/>
<path d="M214.242 109.675C215.239 110.67 216.226 111.96 217.007 113.337C217.867 114.865 218.231 116.625 219.511 117.452C220.141 117.866 220.668 117.25 220.769 116.474C221.031 114.532 219.494 112.376 218.48 110.919C217.344 109.293 216.067 108.147 214.652 107.488C213.684 107.029 213.377 108.805 214.242 109.675Z" fill="#E7EAF5" fill-opacity="0.71"/>
</svg>
