<svg width="94" height="94" viewBox="0 0 94 94" fill="none" xmlns="http://www.w3.org/2000/svg">
<path d="M20.2975 55.4688C18.2003 50.724 17.8302 44.8843 18.2003 39.7745H5C6.97388 51.9406 14.8694 60.3353 25.8491 64.4718H26.836C24.6154 62.7685 22.2714 59.8487 20.2975 55.4688ZM74.8258 39.7745C75.1959 44.8843 74.8258 50.724 72.7286 55.4688C70.7547 59.9703 68.4107 62.7685 66.1901 64.5935L68.7808 64.7151C79.8839 60.5786 88.0261 52.184 90 39.7745H74.8258ZM57.9245 52.0623C57.9245 57.9021 56.5675 61.9169 54.4702 64.4718C52.4964 66.905 49.7823 68 46.9448 68C44.1074 68 41.3933 66.905 39.4194 64.5935C37.3222 62.0386 35.9652 57.9021 35.9652 52.184C35.9652 40.9911 46.9448 27.73 46.9448 27.73C46.9448 27.73 57.9245 40.9911 57.9245 52.0623ZM69.6444 53.1573C67.6705 58.5104 64.9565 61.7952 62.119 63.4985C61.0087 64.1068 59.8984 64.5935 58.6647 64.7151C60.6386 61.4303 61.7489 56.6855 61.5022 51.454C61.2554 45.0059 58.9115 39.4095 55.7039 36.4896C61.2554 30.8932 67.7939 27.1217 67.7939 27.1217C67.7939 27.1217 73.4688 42.9377 69.6444 53.1573ZM25.6023 27C25.6023 27 32.1408 30.7715 37.6923 36.368C34.4848 39.2878 32.2641 44.7626 31.894 51.3323C31.6473 56.5638 32.7576 61.3086 34.7315 64.5935C33.6212 64.4718 32.3875 63.9852 31.2772 63.3769C28.4398 61.6736 25.8491 58.3887 23.7518 53.0356C20.0508 42.9377 25.6023 27 25.6023 27Z" fill="#fed6c9"/>
<path d="M57.9245 52.0623C57.9245 57.9021 56.5675 61.9169 54.4702 64.4718C52.4964 66.9051 49.7823 68 46.9448 68C44.1074 68 41.3933 66.905 39.4194 64.5935C37.3222 62.0386 35.9652 57.9021 35.9652 52.184C35.9652 40.9911 46.9448 27.73 46.9448 27.73C46.9448 27.73 57.9245 40.9911 57.9245 52.0623Z" fill="#fed6c9"/>
</svg>
