<svg width="41" height="41" viewBox="0 0 41 41" fill="none" xmlns="http://www.w3.org/2000/svg">
<g clip-path="url(#clip0_286_5566)">
<path d="M24.1129 39.7986H25.3142V40.9999H24.1129V39.7986Z" fill="#7F7F7F"/>
<path d="M32.6196 32.6405L25.302 30.2335L24.8742 27.7385H29.5441C31.8114 27.7956 33.3086 25.1177 32.0899 23.2142L27.7241 16.0237C27.2046 15.1681 26.3008 14.6069 25.3143 14.5059V14.488H22.2983V12.6478C23.0292 12.2279 23.6394 11.6218 24.0642 10.8941H27.1324V3.02391C27.1325 1.35652 25.776 0 24.1086 0C22.9953 0 22.004 0.595221 21.4769 1.53157C20.9865 1.36229 20.4611 1.26908 19.914 1.26908C17.2657 1.26908 15.1111 3.42366 15.1111 6.072V8.48115C15.1111 10.2571 16.0809 11.8099 17.5179 12.641V14.4881H14.5019V14.506C13.5152 14.6069 12.6116 15.1682 12.0921 16.0238L10.7351 18.2587L11.7619 18.8822L13.1189 16.6473C13.4218 16.1486 13.9339 15.8103 14.5019 15.7166V18.5676L10.9344 24.6954H18.106V21.692C18.106 20.9088 18.6082 20.2407 19.3074 19.9929V26.5372H10.2722C8.91948 26.5713 8.02613 24.9736 8.75308 23.8381L11.0922 19.9898L10.0656 19.3659L7.72639 23.2143C6.50761 25.118 8.00523 27.7957 10.2722 27.7386H14.9995L14.5737 30.2218L7.22022 32.6406C5.45722 33.2205 4.27271 34.857 4.27271 36.713C4.27271 39.0769 6.19586 41.0001 8.55977 41.0001H22.9116V39.7987H15.1886C15.3658 39.1447 15.827 38.59 16.4623 38.3033L18.8045 37.4292C19.9201 37.0158 20.9434 37.6457 21.3993 38.6813L28.9184 36.871V39.7987H26.5157V41H31.2801C33.644 41 35.5672 39.0768 35.5672 36.7129C35.5672 34.857 34.3826 33.2204 32.6196 32.6405ZM26.6972 16.6473L31.0631 23.8378C31.7903 24.9736 30.8967 26.5712 29.5441 26.5372H20.5088V19.9933C21.2079 20.2412 21.7101 20.9089 21.7101 21.692V24.6954H28.8818L25.3143 18.5676V15.7166C25.8823 15.8103 26.3944 16.1486 26.6972 16.6473ZM26.792 23.494H25.4352C25.7352 23.1807 25.9831 22.8176 26.1655 22.4183L26.792 23.494ZM24.1086 1.20133C25.1135 1.20133 25.9311 2.01893 25.9311 3.02383V9.69266H24.5619C24.6628 9.30548 24.717 8.89948 24.717 8.48107V6.072C24.717 4.39989 23.8575 2.92525 22.5577 2.06489C22.883 1.53518 23.4614 1.20133 24.1086 1.20133ZM16.3125 8.48115V6.072C16.3125 5.62901 16.3934 5.20476 16.5404 4.81246C17.3668 6.07777 18.8235 6.83259 21.0223 7.15498L21.1967 5.96638C19.0521 5.65191 17.8217 4.92448 17.2705 3.62946C17.9289 2.91741 18.8701 2.47049 19.9141 2.47049C21.9001 2.47049 23.5156 4.55757 23.5156 6.14343C23.2191 6.14343 22.7149 6.11629 22.3543 6.0901L22.2675 7.28831C22.6556 7.31642 23.0738 7.33524 23.5157 7.34493V8.48115C23.5157 10.4671 21.9001 12.0827 19.9142 12.0827C17.9282 12.0827 16.3125 10.4671 16.3125 8.48115ZM19.9141 13.2841C20.3222 13.2841 20.7184 13.2326 21.097 13.1363V14.8059L19.9082 15.9549L18.7194 14.8059V13.1336C19.1014 13.2318 19.5017 13.2841 19.9141 13.2841ZM13.6507 22.4183C13.8331 22.8176 14.0811 23.1807 14.381 23.494H13.0242L13.6507 22.4183ZM16.9047 21.692V23.479C15.6066 23.3429 14.5808 22.2781 14.5063 20.9629L15.7033 18.8896V15.6895H17.9046L19.9081 17.6258L21.9116 15.6895H24.1129V18.8896L25.31 20.9629C25.2355 22.2782 24.2097 23.3429 22.9115 23.479V21.692C22.9115 19.935 21.7101 18.6886 19.9081 18.6886C18.1061 18.6886 16.9047 20.0359 16.9047 21.692ZM23.6553 27.7385L24.0586 30.0906H15.815L16.2183 27.7385H23.6553ZM13.9596 39.7986H10.9214V36.8709L15.0052 37.854C14.4602 38.3692 14.09 39.0506 13.9596 39.7986ZM31.2801 39.7986H30.1198V36.5773L32.0677 36.0895L31.7759 34.9242L29.3766 35.5249L24.2792 36.7521L25.3023 33.9091L24.172 33.5023L22.8812 37.0886L21.9624 37.3098C21.1275 36.2391 19.6916 35.8156 18.3842 36.3034L16.8782 36.8655L15.6677 33.5021L14.5374 33.909L15.5606 36.7519L9.85071 35.3773L8.04022 34.924L7.74842 36.0894L9.71994 36.5831V39.7985H8.55961C6.85811 39.7985 5.47388 38.4143 5.47388 36.7128C5.47388 35.377 6.32647 34.199 7.59539 33.7816L15.1649 31.2917H24.6745L32.244 33.7816C33.5129 34.199 34.3655 35.377 34.3655 36.7128C34.3658 38.4144 32.9815 39.7986 31.2801 39.7986Z" fill="#525252"/>
<path d="M16.9047 32.5044H18.1061V33.7057H16.9047V32.5044Z" fill="#7F7F7F"/>
<path d="M16.9047 16.8865H18.1061V18.0878H16.9047V16.8865Z" fill="#7F7F7F"/>
<path d="M35.5259 2.48999H36.7273V3.69132H35.5259V2.48999Z" fill="#7F7F7F"/>
<path d="M31.9218 8.48575H33.1231V7.28434H34.3246V6.083H33.1231V4.88159H31.9218V6.083H30.7204V7.28434H31.9218V8.48575Z" fill="#7F7F7F"/>
<path d="M35.5259 9.69824H36.7273V10.8996H35.5259V9.69824Z" fill="#7F7F7F"/>
<path d="M5.49164 2.48999H6.69297V3.69132H5.49164V2.48999Z" fill="#7F7F7F"/>
<path d="M9.09574 8.48575H10.2972V7.28434H11.4985V6.083H10.2972V4.88159H9.09574V6.083H7.89441V7.28434H9.09574V8.48575Z" fill="#7F7F7F"/>
<path d="M5.49164 9.69824H6.69297V10.8996H5.49164V9.69824Z" fill="#7F7F7F"/>
</g>
<defs>
<clipPath id="clip0_286_5566">
<rect width="41" height="41" fill="white"/>
</clipPath>
</defs>
</svg>
