<svg width="52" height="52" viewBox="0 0 52 52" fill="none" xmlns="http://www.w3.org/2000/svg">
<path d="M15.2013 19.7453C14.0961 17.9829 14.3028 17.4884 14.3028 17.4884L17.5912 12.7138C18.4717 11.5269 18.346 9.87244 17.3037 8.8294L10.4932 2.05867C9.50485 1.06958 7.93251 0.979663 6.82738 1.83387L3.87135 4.12677C3.61978 4.32459 3.38617 4.54936 3.19749 4.81012C-2.63369 12.9566 5.55152 25.7877 15.6415 35.8314C25.453 45.5964 38.7416 54.3003 46.7651 48.0781C46.9897 47.8983 47.1874 47.6915 47.3671 47.4577L49.6762 44.4365C50.5297 43.3215 50.4219 41.757 49.4246 40.7679L42.623 33.9971C41.5718 32.9541 39.9186 32.8372 38.7416 33.7274L33.9886 37.0453C33.9886 37.0453 32.0928 37.7377 22.8653 28.5572C19.5679 25.2752 17.5373 22.9373 16.2884 21.2739C15.8212 20.6804 15.4708 20.1769 15.2013 19.7453Z" stroke="#FADDD5" stroke-width="2.5" stroke-miterlimit="10" stroke-linecap="square"/>
<path d="M40.8431 23.9713C40.8431 21.9931 40.4118 19.988 39.4954 18.0908C37.1952 13.3342 32.4602 10.5378 27.5186 10.4658" stroke="#FADDD5" stroke-width="2.5" stroke-miterlimit="10" stroke-linecap="square"/>
<path d="M48.6072 23.9713C48.6072 20.8602 47.9243 17.6951 46.4778 14.7009C42.8389 7.16583 35.3366 2.75992 27.5107 2.68799" stroke="#FADDD5" stroke-width="2.5" stroke-miterlimit="10" stroke-linecap="square"/>
<path d="M46.4778 14.7009C43.8272 8.55055 35.5342 3.02967 27.5107 2.68799" stroke="#FADDD5" stroke-width="2.5" stroke-miterlimit="10" stroke-linecap="square"/>
</svg>
