<svg width="80" height="80" viewBox="0 0 80 80" fill="none" xmlns="http://www.w3.org/2000/svg">
<g clip-path="url(#clip0_124_2839)">
<path d="M11.8999 64.6094H14.2437V66.9531H11.8999V64.6094Z" fill="#B5BEDB"/>
<path d="M77.6562 0H80V2.34375H77.6562V0Z" fill="#B5BEDB"/>
<path d="M72.9902 4.66577H70.6465V7.00952H68.3027V9.35327H70.6465V11.697H72.9902V9.35327H75.334V7.00952H72.9902V4.66577Z" fill="#B5BEDB"/>
<path d="M77.6562 14.0625H80V16.4062H77.6562V14.0625Z" fill="#B5BEDB"/>
<path d="M0 0H2.34375V2.34375H0V0Z" fill="#B5BEDB"/>
<path d="M7.1167 11.697H9.46045V9.35327H11.8042V7.00952H9.46045V4.66577H7.1167V7.00952H4.77295V9.35327H7.1167V11.697Z" fill="#B5BEDB"/>
<path d="M0 14.0625H2.34375V16.4062H0V14.0625Z" fill="#B5BEDB"/>
<path d="M44.6875 62.2656H47.0312V64.6094H44.6875V62.2656Z" fill="#B5BEDB"/>
<path d="M55.4345 45.9606C57.4534 44.2397 58.7373 41.6808 58.7373 38.8264C58.7373 34.1275 55.262 30.2258 50.747 29.5544C52.7659 27.8334 54.0498 25.2745 54.0498 22.4202C54.0498 17.2508 49.8442 13.0452 44.6748 13.0452H42.3438V15.3889H44.6748C48.5519 15.3889 51.7061 18.5431 51.7061 22.4202C51.7061 26.2972 48.5519 29.4514 44.6748 29.4514H35.3252C31.4481 29.4514 28.2939 26.2972 28.2939 22.4202C28.2939 18.5431 31.4481 15.3889 35.3252 15.3889H40V13.0452H35.3252C30.1558 13.0452 25.9502 17.2508 25.9502 22.4202C25.9502 25.2747 27.2341 27.8334 29.253 29.5544C24.738 30.2258 21.2627 34.1275 21.2627 38.8264C21.2627 41.6809 22.5466 44.2397 24.5655 45.9606C20.2459 46.603 16.8803 50.2025 16.5967 54.6277C16.3197 54.4895 12.4637 52.8872 12.4637 52.8872C11.8412 54.4711 10.5972 57.0695 10.353 58.7381H6.07656V62.2711C6.07656 64.4672 6.63203 66.5356 7.60891 68.3447C3.81281 69.2434 0 70.8114 0 73.4758C0 75.5667 2.29859 77.2331 6.89219 78.4288L7.4825 76.1605C3.26281 75.0622 2.31312 73.8231 2.31312 73.4756C2.31312 72.9255 3.97219 71.4964 9.01531 70.4324C11.3698 73.2799 14.928 75.0974 18.9028 75.0974H23.6578C27.6425 75.0974 31.2083 73.2706 33.5627 70.4111C38.6797 71.4758 40.3662 72.9166 40.3662 73.4755C40.3662 73.8413 39.46 75.0309 35.322 76.1274C31.6022 77.1131 26.6366 77.6559 21.3398 77.6559C17.1402 77.6559 13.133 77.3141 9.75141 76.6672L9.31109 78.9692C12.8353 79.6438 16.9948 80 21.3398 80C31.6323 80 42.7102 77.9584 42.7102 73.4758C42.7102 70.7931 38.825 69.2205 34.965 68.3199C35.5798 67.175 36.0236 65.9261 36.2673 64.6077H42.3438V62.2639H36.4844V58.736H32.2372C31.997 57.0805 30.7442 54.4575 30.1269 52.887C28.5547 53.5658 25.8323 54.5139 24.4694 55.5256L21.282 52.283L18.9473 54.6175C19.26 51.0275 22.2803 48.2013 25.9502 48.2013H54.0498C57.9269 48.2013 61.0811 51.3555 61.0811 55.2325C61.0811 59.1095 57.9269 62.2638 54.0498 62.2638H49.365V64.6075H54.0498C59.2192 64.6075 63.4248 60.4019 63.4248 55.2325C63.4248 50.5338 59.9495 46.632 55.4345 45.9606ZM13.7372 55.9472C14.7328 56.3484 15.8741 56.8056 16.7453 57.4241C16.2427 58.2881 15.8436 59.2097 15.5548 60.1722C14.6513 59.6995 13.6855 59.3314 12.6722 59.0841C12.9422 57.2739 13.7372 55.9472 13.7372 55.9472ZM18.903 72.7539C13.1228 72.7539 8.42031 68.0514 8.42031 62.2713V61.0605H9.63109C15.3438 61.0605 19.9955 65.6545 20.1036 71.3417V72.7539H18.903ZM34.1406 61.0605V62.2713C34.1406 68.0514 29.4381 72.7539 23.658 72.7539H22.4523V71.3417C22.5605 65.6545 27.2173 61.0605 32.93 61.0605H34.1406ZM28.8533 55.9472C29.2633 56.9214 29.7398 58.0406 29.917 59.0774C28.8947 59.3245 27.9202 59.6942 27.0091 60.1705C26.7219 59.2134 26.3244 58.297 25.8256 57.4372C27.5445 56.3839 28.8533 55.9472 28.8533 55.9472ZM21.282 55.5977C23.0314 57.1883 24.4514 59.1849 24.9422 61.5184C23.3856 62.7613 22.1245 64.3575 21.2805 66.1855C20.4369 64.3586 19.1769 62.7631 17.6216 61.5206C18.1114 59.1867 19.5319 57.1888 21.282 55.5977ZM30.6377 45.8577C26.7606 45.8577 23.6064 42.7034 23.6064 38.8264C23.6064 34.9494 26.7606 31.7952 30.6377 31.7952H49.3623C53.2394 31.7952 56.3936 34.9494 56.3936 38.8264C56.3936 42.7034 53.2394 45.8577 49.3623 45.8577H30.6377Z" fill="#B5BEDB"/>
<path d="M31.7969 18.9062H34.1406V21.25H31.7969V18.9062Z" fill="#B5BEDB"/>
<path d="M36.4844 18.9062H38.8281V21.25H36.4844V18.9062Z" fill="#B5BEDB"/>
<path d="M27.1221 35.3125H29.4658V37.6562H27.1221V35.3125Z" fill="#B5BEDB"/>
</g>
<defs>
<clipPath id="clip0_124_2839">
<rect width="80" height="80" fill="white"/>
</clipPath>
</defs>
</svg>
