<svg width="56" height="46" viewBox="0 0 56 46" fill="none" xmlns="http://www.w3.org/2000/svg">
<path d="M9.57812 20.394V19.468C9.57812 9.40696 17.7289 1.25 27.7822 1.25C37.8356 1.25 45.9864 9.40696 45.9864 19.468V38.7083C45.9864 41.7681 43.5064 44.25 40.4489 44.25H30.1364C29.5442 44.25 29.063 43.7684 29.063 43.1757V41.168C29.063 40.5753 29.5442 40.0937 30.1364 40.0937H34.4228C35.015 40.0937 35.4962 40.5753 35.4962 41.168V43.6129" stroke="#7F7F7F" stroke-width="2.5" stroke-miterlimit="10" stroke-linecap="square"/>
<path d="M5.64003 38.7083H9.57844V24.7207H5.64003C3.21923 24.7207 1.25 26.684 1.25 29.1141V34.3149C1.2574 36.745 3.21923 38.7083 5.64003 38.7083Z" stroke="#7F7F7F" stroke-width="2.5" stroke-miterlimit="10" stroke-linecap="square"/>
<path d="M50.5244 38.7083C52.612 38.7083 54.3074 37.0117 54.3074 34.9225V28.5139C54.3074 26.4247 52.612 24.7207 50.5244 24.7207H45.9863" stroke="#7F7F7F" stroke-width="2.5" stroke-miterlimit="10" stroke-linecap="square"/>
<path d="M5.90693 24.7207H5.04076C2.9531 24.7207 1.25781 26.4173 1.25781 28.5139V34.9225C1.25781 37.0117 2.9531 38.7083 5.04076 38.7083H9.57884" stroke="#7F7F7F" stroke-width="2.5" stroke-miterlimit="10" stroke-linecap="square"/>
</svg>
