<svg width="200" height="200" viewBox="0 0 200 200" fill="none" xmlns="http://www.w3.org/2000/svg">
<path d="M156.496 40.7633C158.439 42.6744 161.371 43.4986 164.192 42.6633C168.257 41.4569 170.555 37.262 169.32 33.2903L160.64 5.33607C159.407 1.36284 155.111 -0.879955 151.045 0.326211C146.98 1.53066 144.684 5.72556 145.917 9.69918L148.075 16.6498C138.924 11.7478 129.001 8.25388 118.655 6.33365C100.869 3.03533 82.5003 4.51391 65.5098 10.6146C48.5159 16.7151 33.537 27.2069 22.1697 40.9725C10.802 54.7363 3.47306 71.2575 0.965572 88.7705C-1.54421 106.285 0.860597 124.138 7.92417 140.42C14.9859 156.703 26.441 170.81 41.0667 181.232C55.6924 191.655 72.9399 198.004 90.9721 199.601C109.002 201.197 127.138 197.983 143.443 190.301C147.269 188.498 148.874 184.007 147.029 180.268C145.183 176.53 140.585 174.962 136.758 176.765C122.961 183.264 107.615 185.985 92.3591 184.633C77.1036 183.281 62.5087 177.909 50.1335 169.091C37.7583 160.27 28.0646 148.335 22.089 134.556C16.1135 120.776 14.077 105.671 16.2009 90.8507C18.3233 76.0316 24.5242 62.0517 34.1437 50.4043C43.7632 38.7569 56.436 29.8799 70.8154 24.7173C85.1948 19.5566 100.736 18.3051 115.787 21.0965C130.837 23.8876 144.829 30.6183 156.27 40.5693C156.345 40.6346 156.421 40.698 156.497 40.7595L156.496 40.7633Z" fill="#888A84"/>
<path d="M188.403 75.2958C184.467 76.8582 179.98 75.0105 178.379 71.1659C176.663 67.0435 174.609 63.0645 172.239 59.2665C170.025 55.7221 171.172 51.0983 174.798 48.937C178.426 46.7761 183.16 47.8967 185.372 51.4392C188.176 55.9289 190.603 60.6313 192.632 65.5032C194.231 69.3478 192.338 73.7311 188.403 75.2958Z" fill="#888A84"/>
<path d="M184.601 103.813C184.524 107.961 187.904 111.386 192.153 111.46C196.401 111.535 199.905 108.233 199.984 104.083C200.081 98.8246 199.743 93.5689 198.974 88.3648C198.369 84.2573 194.468 81.4066 190.263 81.9994C186.059 82.5923 183.142 86.4033 183.747 90.5108C184.398 94.9129 184.683 99.3635 184.601 103.812L184.601 103.813Z" fill="#888A84"/>
<path d="M180.97 146.259C177.098 144.553 175.374 140.102 177.123 136.319C178.997 132.262 180.531 128.067 181.715 123.769C182.818 119.76 187.038 117.385 191.141 118.463C195.243 119.54 197.676 123.663 196.573 127.672C195.174 132.749 193.361 137.708 191.145 142.502C189.399 146.285 184.843 147.966 180.97 146.259Z" fill="#888A84"/>
<path d="M156.355 163.971C153.186 166.736 152.911 171.485 155.74 174.582C158.57 177.677 163.433 177.947 166.602 175.182C170.617 171.681 174.335 167.866 177.723 163.779C180.397 160.553 179.887 155.821 176.585 153.211C173.284 150.598 168.44 151.096 165.765 154.322C162.899 157.781 159.753 161.006 156.354 163.971L156.355 163.971Z" fill="#888A84"/>
<path d="M99.9996 44.6973C104.248 44.6973 107.691 48.0627 107.691 52.213V91.5855C107.691 94.3487 107.699 95.9111 107.809 97.0726C107.859 97.591 107.918 97.8688 107.955 98.0086C107.972 98.0739 107.985 98.1074 107.989 98.1168L107.995 98.1317L108.002 98.1429C108.012 98.1559 108.039 98.1895 108.077 98.2305C108.174 98.3386 108.38 98.54 108.794 98.8681C109.722 99.6028 111.046 100.475 113.4 102.008L135.035 116.098C138.572 118.401 139.526 123.066 137.169 126.519C134.812 129.974 130.037 130.906 126.502 128.603L104.631 114.36C102.599 113.037 100.66 111.774 99.1079 110.546C97.373 109.171 95.6858 107.518 94.4299 105.223C93.1722 102.927 92.6969 100.64 92.4908 98.4677C92.3057 96.5249 92.3057 94.2502 92.3057 91.8636V52.2134C92.3057 48.063 95.7507 44.6976 99.9991 44.6976L99.9996 44.6973Z" fill="#888A84"/>
</svg>
